<svg width="724" height="370" viewBox="0 0 724 370" fill="none" xmlns="http://www.w3.org/2000/svg">
<path d="M169.402 34.7047C169.141 32.6439 168.613 30.6257 167.83 28.7006C167.73 28.3366 167.556 27.9973 167.317 27.7043C167.079 27.4113 166.782 27.1711 166.445 26.9989C165.995 26.8822 165.523 26.877 165.071 26.9836L158.014 28.0606C157.424 28.0875 156.858 28.3067 156.404 28.6846C155.485 29.6487 156.39 31.2011 156.362 32.5312C156.33 34.0269 154.998 35.2409 153.553 35.6426C152.079 35.9398 150.557 35.921 149.09 35.5874L139.223 34.0579C142.129 33.1325 144.716 31.4108 146.688 29.0893C147.986 27.555 148.677 24.6904 146.801 23.9638C146.243 23.8112 145.662 23.7646 145.087 23.8266C140.616 23.8612 137.098 20.1381 132.913 18.5701C130.235 17.6314 127.327 17.5615 124.606 18.3706C121.886 19.1796 119.491 20.826 117.765 23.0745L123.021 23.3273C123.516 23.3 124.006 23.4305 124.421 23.6997C125.573 24.6438 124.141 26.4571 124.304 27.9354C124.514 29.856 127.071 30.266 128.998 30.4603C130.925 30.6545 133.37 32.2163 132.443 33.9128C122.757 37.2407 112.9 27.4073 102.727 28.6178C100.153 28.9242 97.7215 29.933 95.2078 30.5674C79.8524 34.4427 63.9776 24.103 48.2911 26.2928C44.8038 26.8858 41.3764 27.7874 38.0495 28.987C35.9146 29.6862 33.6877 30.4419 32.1365 32.0635C30.5852 33.6851 29.9948 36.4584 31.4644 38.154C27.4139 38.4867 23.3364 38.1001 19.4212 37.0121C20.48 37.5992 21.3607 38.4597 21.9711 39.5033C22.5814 40.5469 22.8989 41.7352 22.8901 42.9434C16.5657 43.9721 10.4088 45.8447 4.58496 48.5107C5.67191 50.3137 6.94147 52.0006 8.37368 53.545L0.367188 58.6757C3.07216 59.3555 4.4707 63.0347 2.89766 65.3325C5.70241 64.0879 7.44066 60.8682 10.4399 60.2155C12.4048 59.7878 14.4041 60.5896 16.2681 61.3427C18.1321 62.0959 20.1808 62.8262 22.1104 62.261C24.04 61.6957 25.4633 59.2 24.2372 57.6099C32.4849 55.2096 41.0088 53.8812 49.5975 53.6577C50.2601 53.5748 50.932 53.702 51.5181 54.0213C52.6361 54.795 52.342 56.4662 52.2818 57.8222C52.2215 59.1782 53.2811 60.9603 54.4961 60.3491C53.0666 61.5855 54.2886 63.9131 55.66 65.2132C57.0314 66.5134 58.6843 68.3074 57.8447 69.9986C57.6256 70.44 57.2539 70.7932 57.0431 71.2386C56.4207 72.5533 57.4089 74.086 58.5744 74.9591C59.7399 75.8322 61.1675 76.4424 61.9772 77.6514C62.7868 78.8603 62.4191 80.9766 60.9714 81.1454L56.8564 75.9339C55.4505 77.3881 54.4867 79.21 54.0767 81.1883C58.4403 84.7464 59.0966 91.9886 55.4435 96.2695C53.5766 98.4572 50.9218 99.7865 48.6047 101.493C46.2877 103.199 44.1437 105.629 44.1495 108.502C44.1595 113.465 43.753 118.076 45.6176 122.678C49.0559 131.163 53.0256 139.424 57.5031 147.412C58.6789 149.51 60.1985 151.809 62.5805 152.17C59.5702 144.86 56.8603 137.437 54.4508 129.899C56.0201 129.905 57.8337 130.03 58.7537 131.298C59.5155 132.348 59.3518 133.776 59.5885 135.05C59.8896 136.285 60.3917 137.462 61.0747 138.535L75.4499 164.077C76.6416 166.194 78.0085 168.467 80.2861 169.325C81.7422 169.873 83.4269 169.77 84.7672 170.559C85.8178 171.178 86.5253 172.276 87.5963 172.858C90.6245 174.506 94.8355 171.346 97.6655 173.313C98.4747 173.876 98.9894 174.77 99.735 175.414C102.349 177.671 106.636 176.161 109.654 177.845C111.598 178.931 112.606 181.102 113.643 183.069C116.241 187.996 120.445 192.824 126.013 193.217C127.762 193.34 129.548 193.009 131.258 193.397C132.967 193.785 134.65 195.273 134.376 197.001C133.905 199.962 135.372 203.205 134.978 206.177C134.261 211.591 126.561 213.971 125.9 219.392C125.755 220.579 125.982 221.804 125.699 222.966C125.351 224.39 124.279 225.55 123.898 226.965C123.176 229.648 125.103 232.317 127.219 234.122C129.336 235.926 131.86 237.483 133.018 240.009C134.241 242.679 133.64 245.792 134.038 248.701C134.906 255.051 140.405 259.758 146.063 262.794C147.787 263.718 149.639 264.614 150.755 266.218C152.211 268.312 152.066 271.072 152.552 273.574C153.743 279.702 158.915 284.751 159.062 290.991C159.166 295.426 156.694 299.449 155.218 303.634C153.834 307.644 153.333 311.904 153.749 316.124C154.166 320.344 155.49 324.425 157.632 328.088C158.736 329.948 160.057 331.702 160.839 333.719C162.233 337.318 161.781 341.408 163.066 345.047C164.766 349.858 169.436 353.832 168.989 358.913C171.109 363.305 175.791 365.463 180.499 366.77L188.936 369.113C190.552 369.561 192.24 370.013 193.885 369.689C195.53 369.364 197.1 368.001 197.058 366.329C192.92 365.398 188.65 364.409 185.239 361.894C181.828 359.379 179.492 354.9 180.786 350.871C181.386 349.003 182.663 346.845 181.449 345.301C180.754 344.418 179.483 344.187 178.699 343.38C177.477 342.122 177.897 340.009 178.776 338.492C179.655 336.976 180.925 335.62 181.28 333.904C181.459 332.944 181.339 331.953 180.937 331.062C180.535 330.172 179.869 329.426 179.03 328.924C180.595 328.334 182.017 327.424 183.206 326.251C184.305 325 184.812 323.071 183.948 321.649C186.514 321.973 189.542 322.132 191.227 320.175C192.572 318.611 192.479 316.274 191.948 314.284C191.416 312.293 190.518 310.36 190.49 308.3C196.409 308.58 202.34 308.379 208.226 307.7C207.375 304.841 205.44 302.425 202.833 300.964C205.499 300.514 207.928 297.331 208.77 294.769C209.612 292.206 209.397 289.415 208.877 286.769C208.677 286.087 208.649 285.367 208.797 284.673C209.097 283.718 210.037 283.136 210.906 282.638L224.138 275.058C224.927 274.664 225.643 274.137 226.253 273.5C227.64 271.876 227.434 269.424 226.725 267.412C226.015 265.4 224.878 263.508 224.604 261.392C223.787 255.065 230.577 250.526 232.868 244.57C233.768 242.232 233.951 239.692 234.125 237.194C234.312 234.512 234.326 231.396 232.261 229.667C230.282 228.01 227.189 228.38 225.118 226.839C223.219 225.426 222.564 222.681 220.489 221.54C218.605 220.503 216.243 221.163 214.148 220.675C210.459 219.817 208.137 215.576 204.37 215.183C202.244 214.961 199.838 215.998 198.096 214.763C196.561 213.675 196.499 211.488 196.207 209.632C195.695 206.748 194.309 204.09 192.236 202.015C190.163 199.941 187.502 198.55 184.612 198.03C182.42 197.679 180.035 197.812 178.17 196.611C176.282 195.394 175.416 193.116 173.933 191.432C171.543 188.716 167.778 187.752 164.252 186.925L149.907 183.561C147.361 182.964 144.079 182.647 142.712 184.872C142.308 185.719 142.021 186.618 141.861 187.542C141.349 189.215 140.318 190.682 138.918 191.734C137.517 192.786 135.818 193.367 134.065 193.395C132.863 191.35 130.915 189.847 128.628 189.199C127.174 188.795 125.617 188.75 124.23 188.155C123.474 187.787 122.802 187.27 122.254 186.634C121.706 185.998 121.294 185.257 121.043 184.456C120.792 183.656 120.707 182.813 120.794 181.979C120.881 181.145 121.138 180.337 121.549 179.606C122.376 178.137 122.695 176.438 122.458 174.77C122.22 173.102 121.439 171.558 120.234 170.378C117.795 168.193 114.266 167.665 110.995 167.884C110.139 166.019 111.571 163.916 113.115 162.561C114.658 161.206 116.533 159.874 116.869 157.85C117.397 154.667 113.326 152.25 110.235 153.199C107.143 154.148 105.17 157.143 103.866 160.095C103.118 161.789 102.481 163.573 101.301 165.001C100.121 166.43 98.2197 167.452 96.4217 166.994C93.8762 166.345 92.8931 163.328 92.3298 160.769C91.5739 157.334 90.8137 153.853 90.972 150.34C91.1304 146.828 92.3175 143.221 94.9142 140.843C99.1456 136.968 105.637 137.348 111.347 137.966C109.998 136.45 110.332 133.895 111.775 132.468C112.537 131.792 113.453 131.312 114.443 131.07C115.433 130.827 116.467 130.829 117.456 131.075C119.177 131.433 120.727 132.357 121.857 133.7C123.48 135.674 123.941 138.338 125.168 140.578C126.394 142.818 129.153 144.729 131.41 143.527C133.36 142.489 133.669 139.792 133.184 137.641C132.699 135.491 131.668 133.399 131.844 131.201C132.179 127.008 136.537 124.484 140.383 122.757C144.228 121.03 148.632 118.707 149.241 114.545C149.262 113.73 149.416 112.924 149.697 112.158C150.124 111.482 150.717 110.926 151.419 110.543C162.643 103.145 174.053 95.6561 186.88 91.6135C187.548 91.4032 187.626 91.637 188.306 91.4722C189.258 90.9234 188.627 89.4053 187.715 88.7938C186.802 88.1823 185.582 87.7133 185.351 86.6412C185.181 85.8532 185.646 85.0793 185.767 84.2823C186.064 82.3236 183.715 80.5152 181.891 81.2983C180.86 79.9371 182.899 78.3554 184.548 77.9027C189.499 76.5437 194.581 75.7156 199.707 75.4326C200.299 75.3387 200.905 75.4416 201.432 75.7252C202.293 76.3202 202.183 77.6848 201.573 78.534C200.963 79.3833 200.014 79.9165 199.253 80.635C198.422 81.4424 197.83 82.4619 197.54 83.5822C197.25 84.7026 197.275 85.8808 197.611 86.9883C200.287 88.3462 203.197 89.7442 206.161 89.2658C209.125 88.7874 211.756 85.4652 210.363 82.8119C209.066 80.3411 205.168 79.7838 204.498 77.0759C203.713 73.9053 208.213 71.0855 207.199 67.9802C206.755 66.62 205.396 65.8195 204.353 64.8375C203.122 63.6334 202.284 62.086 201.95 60.3984C201.616 58.7109 201.802 56.962 202.482 55.3816C200.784 55.6796 199.038 55.567 197.392 55.0533C195.746 54.5395 194.248 53.6395 193.023 52.4288C190.76 50.1511 188.955 46.5581 185.742 46.66C182.794 46.7535 180.254 50.1847 177.497 49.1379C176.819 48.8803 176.104 48.3562 175.446 48.6633C175.231 48.8028 175.05 48.9893 174.918 49.2087C174.785 49.4281 174.704 49.6746 174.681 49.9298C173.981 53.271 175.186 57.0778 173.36 59.965C171.374 63.1069 166.779 63.5425 164.37 66.3756C163.063 67.9136 162.556 69.9859 161.355 71.6073C160.153 73.2287 157.602 74.2596 156.16 72.8466C156.869 71.3932 157.062 69.743 156.709 68.1657C156.356 66.5883 155.477 65.1772 154.215 64.1628C152.876 63.2915 151.433 62.5912 149.919 62.0785C148.228 61.3643 146.618 60.4697 145.12 59.4104C144.369 58.9587 143.759 58.3076 143.358 57.53C143.041 56.5562 143.083 55.5013 143.478 54.5563C144.21 52.465 145.5 50.6126 147.209 49.1992C148.919 47.7858 150.983 46.865 153.179 46.5363C155.099 46.2758 157.334 46.3676 158.605 44.9082C159.277 44.1361 159.63 42.9686 160.606 42.655C161.23 42.5299 161.878 42.6095 162.453 42.882L169.62 45.3983C170.42 45.7584 171.3 45.9036 172.173 45.8195C172.607 45.7613 173.001 45.5419 173.279 45.2054C173.557 44.8688 173.696 44.44 173.67 44.0049C173.441 42.8177 171.61 42.2481 171.777 41.0506C171.87 40.6625 172.079 40.3118 172.376 40.0448C174.963 37.2988 178.126 35.1573 181.639 33.7734C185.153 32.3894 188.929 31.7975 192.699 32.0398C193.604 33.5218 192.173 35.2766 190.982 36.5417C189.792 37.8068 188.835 40.0672 190.275 41.041C190.865 41.3413 191.521 41.4887 192.183 41.4697C193.948 41.7079 195.663 42.2267 197.263 43.0064C199.739 44.0814 202.168 45.2577 204.55 46.5352C204.339 44.9689 204.139 43.3188 204.734 41.8543C205.329 40.3897 207.021 39.241 208.498 39.8114C209.922 40.361 210.652 42.2417 212.169 42.414C214.193 42.6438 214.991 39.6618 214.146 37.8135C213.301 35.9652 211.627 34.4175 211.488 32.3907C211.394 31.0234 211.915 29.3276 210.82 28.4996C210.431 28.251 209.988 28.0963 209.528 28.0477L182.188 23.0293C180.564 22.7313 178.218 22.9597 178.146 24.6047C178.106 25.523 178.928 26.4314 178.564 27.2757C178.175 28.1768 176.898 28.0944 175.968 28.4131C174.525 28.9077 173.801 30.617 173.939 32.1328C174.193 33.639 174.778 35.0706 175.652 36.3247C173.874 35.5829 171.181 35.4465 169.402 34.7047Z" fill="#AFB0E9"/>
<path d="M147.588 11.5536C145.864 10.9845 144.006 10.958 142.266 11.4777C140.526 11.9974 138.989 13.0381 137.862 14.4588C137.412 15.05 137.034 15.8651 137.411 16.5053C137.951 17.4231 139.328 17.0606 140.343 16.7323C141.835 16.2006 143.459 16.162 144.975 16.6221C145.928 16.9485 146.78 17.5254 147.738 17.8395C148.204 18.0339 148.714 18.0981 149.214 18.0252C149.714 17.9524 150.184 17.7452 150.575 17.4259C151.232 16.7576 151.273 15.7185 151.274 14.7824C151.32 14.4692 151.295 14.1498 151.201 13.8475C151.107 13.5452 150.946 13.2677 150.731 13.0351C150.348 12.8137 149.917 12.6867 149.475 12.6645C148.485 12.4816 147.589 11.9597 146.943 11.1888" fill="#AFB0E9"/>
<path d="M157.446 8.81631C157.06 8.79535 156.675 8.87376 156.329 9.04399C155.982 9.21422 155.685 9.47056 155.467 9.78834C155.248 10.1061 155.115 10.4747 155.08 10.8586C155.046 11.2424 155.111 11.6287 155.269 11.9803C156.454 12.3026 157.692 12.3831 158.909 12.217C159.516 12.123 160.081 11.8519 160.534 11.4379C160.987 11.0239 161.306 10.4854 161.453 9.89045C160.02 10.1505 158.542 9.86887 157.306 9.10047" fill="#AFB0E9"/>
<path d="M190.523 4.24367C187.298 4.92761 184.165 5.98914 181.189 7.40619C182.592 7.94399 183.785 8.91701 184.591 10.1819C185.397 11.4467 185.775 12.9365 185.668 14.4317C185.542 15.0057 185.557 15.6015 185.711 16.1687C186.054 16.9976 187.047 17.3086 187.92 17.5213C189.489 17.9976 191.127 18.2062 192.766 18.1383C193.585 18.0955 194.381 17.8495 195.082 17.4226C195.782 16.9958 196.365 16.4014 196.777 15.6934C197.014 15.0214 197.293 14.3646 197.611 13.7267C199.704 10.5469 205.922 14.3917 208.17 11.3184C208.961 10.2358 208.889 8.60619 209.921 7.74832C210.455 7.37457 211.073 7.13907 211.721 7.06302C216.241 6.16738 220.806 5.51885 225.396 5.12034C227.571 4.93154 230.406 4.15253 230.424 1.9749C222.232 0.370002 213.737 1.50986 206.261 5.21726C203.568 6.56295 200.005 9.39364 197.411 7.60959C196.439 6.94161 196.487 5.1429 195.15 4.39177C193.783 3.62383 191.974 3.93616 190.523 4.24367Z" fill="#AFB0E9"/>
<path d="M217.314 9.24111L221.16 9.97818C220.452 9.94691 219.746 10.0666 219.088 10.3292C218.43 10.5918 217.836 10.9914 217.345 11.5012C216.854 12.011 216.478 12.6193 216.242 13.2856C216.005 13.9519 215.914 14.6608 215.974 15.365C219.575 16.5651 223.502 15.3973 227.295 15.5568C231.089 15.7163 235.503 18.4193 234.855 22.1512C234.659 23.2796 234.006 24.4072 234.345 25.501C234.584 26.2677 235.262 26.8117 235.644 27.5178C236.441 28.9892 235.804 30.8503 234.797 32.1878C233.791 33.5254 232.438 34.5926 231.554 36.014C229.356 39.5493 230.605 44.1197 231.914 48.0693C232.292 49.5616 232.992 50.9541 233.963 52.1505C235.902 54.2077 239.063 54.3866 241.894 54.4278C243.955 54.4578 246.315 54.3562 247.618 52.7639C249.319 50.6849 248.13 47.4413 249.25 45.0014C250.267 42.7854 252.859 41.8348 255.207 41.1605C259.508 39.9253 263.892 38.8752 267.959 37.0094C273.008 34.6926 277.728 31.082 283.278 30.7838C284.835 30.7001 286.431 30.8834 287.931 30.4579C289.431 30.0323 290.855 28.7388 290.742 27.1875C290.645 25.8621 289.521 24.8887 288.642 23.8895C287.764 22.8903 287.074 21.3538 287.881 20.2967L302.429 17.5862C301.398 14.7829 300.595 11.091 302.964 9.26632C303.819 8.60796 304.964 8.34483 305.692 7.54892C306.933 6.19238 306.309 3.85562 304.877 2.70196C303.444 1.5483 301.508 1.28048 299.673 1.12848C293.294 0.600042 286.879 0.949222 280.487 1.29867C267.994 1.98177 255.5 2.66488 243.006 3.34797C240.491 3.48548 237.587 3.2754 235.28 4.13128C233.328 4.85587 231.939 6.18593 229.706 6.65323C225.583 7.51593 221.045 6.93215 217.314 9.24111Z" fill="#AFB0E9"/>
<path d="M286.208 39.5608C285.816 39.499 285.416 39.5896 285.089 39.814C284.873 40.0514 284.744 40.355 284.724 40.675C284.476 42.0872 284.772 43.5407 285.552 44.7447C285.95 45.3352 286.499 45.8089 287.142 46.1165C287.785 46.424 288.499 46.5542 289.21 46.4936C290.941 46.2733 292.217 44.7998 293.809 44.0807C296.263 42.9735 306.683 41.2474 299.475 37.3631C296.991 36.0245 295.386 37.2062 293.428 38.0878C291.2 39.2244 288.704 39.7337 286.208 39.5608Z" fill="#AFB0E9"/>
<path d="M349.342 7.04781C348.5 7.39079 347.796 8.00214 347.34 8.78639C347.129 9.18461 347.08 9.64825 347.203 10.0814C347.326 10.5145 347.611 10.884 347.999 11.1134C348.313 11.2271 348.647 11.2799 348.981 11.2688L352.403 11.3708C353.857 11.4141 355.673 11.723 356.064 13.1205C356.354 14.1581 355.705 15.4916 356.488 16.2331C356.824 16.4928 357.228 16.6501 357.652 16.686C358.779 16.9749 359.957 17.0128 361.1 16.797C363.59 16.1308 362.282 14.6149 363.066 13.2651C364.266 11.1998 364.058 12.45 366.173 11.2664C367.734 10.3922 369.752 8.80652 368.449 6.57855C366.182 2.70418 352.686 5.38338 349.342 7.04781Z" fill="#AFB0E9"/>
<path d="M416.889 5.10015L414.902 5.36467C410.42 5.96115 405.914 6.56311 401.598 7.90539C403.466 8.64219 405.426 9.12194 407.424 9.33144C408.524 9.38522 409.616 9.54013 410.688 9.79419C412.594 10.3603 414.515 11.822 416.357 11.0732C417.499 10.6089 417.871 9.42294 418.817 8.7944C419.47 8.36039 421.948 7.65792 422.225 7.21986C424.464 3.67844 418.61 4.87107 416.889 5.10015Z" fill="#AFB0E9"/>
<path d="M425.615 14.1094C422.961 15.5899 420.498 17.3889 418.282 19.4663C417.348 20.3418 416.394 21.4307 416.479 22.7061C416.591 24.4012 418.402 25.3845 419.97 26.0469L426.323 28.7297C427.094 27.6462 426.388 26.1506 425.592 25.0859C424.795 24.0211 423.849 22.7893 424.201 21.508C424.602 20.0459 426.389 19.5476 427.888 19.2957C430.33 18.8853 436.917 18.9182 436.126 14.9928C435.193 10.3674 428.066 12.7428 425.615 14.1094Z" fill="#AFB0E9"/>
<path d="M424.338 275.862C423.733 277.609 423.675 279.666 424.721 281.191C425.895 282.902 428.245 283.539 430.277 283.106C432.301 282.568 434.105 281.411 435.435 279.798C436.652 278.445 437.652 276.915 438.402 275.259C439.449 272.679 440.187 269.986 440.601 267.233L442.574 256.904C443.014 254.595 442.997 247.517 438.743 249.823C437.581 250.453 434.891 255.427 433.673 256.837C431.478 259.38 431.187 261.846 430.032 264.926C428.584 268.783 425.675 271.998 424.338 275.862Z" fill="#AFB0E9"/>
<path d="M649.018 328.724C647.626 328.182 646.275 327.54 644.976 326.804C643.673 330.377 642.98 334.143 642.927 337.944L652.452 332.568C653.884 331.759 655.508 330.635 655.478 328.994C655.49 328.791 655.448 328.588 655.356 328.407C655.263 328.226 655.123 328.074 654.951 327.965C654.739 327.881 654.509 327.854 654.283 327.887C652.871 328.005 651.583 328.698 650.251 329.18C648.918 329.662 647.361 329.917 646.138 329.201" fill="#AFB0E9"/>
<path d="M699.264 331.916C698.218 332.2 697.197 332.565 696.209 333.009C694.024 334.118 692.537 336.225 690.57 337.687C688.687 339.085 686.422 339.852 684.197 340.599C683.543 341.176 683.844 342.338 684.554 342.844C685.317 343.278 686.193 343.474 687.069 343.408C689.38 343.459 691.815 343.482 693.839 342.368C694.98 341.63 696.047 340.785 697.026 339.845C699.393 337.875 702.235 336.576 705.048 335.32C706.072 334.934 707.019 334.37 707.844 333.652C709.612 331.915 709.736 329.235 707.187 328.644C705.128 328.166 701.225 331.283 699.264 331.916Z" fill="#AFB0E9"/>
<path d="M717.881 328.884C718 327.644 717.834 326.392 717.397 325.225C716.96 324.057 716.263 323.004 715.358 322.145C715.331 324.627 715.255 327.271 713.856 329.324C712.859 330.786 711.295 331.774 710.202 333.167C709.11 334.56 708.625 336.769 709.906 337.991C710.726 338.613 711.723 338.955 712.753 338.969C715.304 339.268 718.256 339.435 720.046 337.597C721.022 336.593 721.497 335.107 722.688 334.37C723.132 334.184 723.528 333.901 723.848 333.542C724.339 332.762 723.558 331.734 722.678 331.454C721.799 331.173 720.83 331.305 719.946 331.038C719.062 330.771 718.25 329.779 718.704 328.977" fill="#3F3D56"/>
<path d="M682.007 229.761C680.717 230.074 679.382 230.152 678.064 229.993C675.876 229.591 674.173 227.946 672.406 226.597C668.207 223.408 663.101 221.629 657.824 221.515C653.023 221.425 648.178 222.722 643.463 221.817C643.771 223.526 645.237 224.808 646.801 225.57C648.366 226.332 650.092 226.715 651.664 227.462C654.181 228.669 656.178 230.741 657.288 233.297C657.794 234.476 658.113 235.759 658.879 236.788C660.447 238.892 663.418 239.354 666.04 239.181C669.458 238.957 673.029 237.977 676.209 239.247C678.642 240.219 680.383 242.343 682.414 243.994C684.446 245.646 687.307 246.872 689.64 245.68C687.217 244.898 685.108 243.363 683.621 241.301C682.134 239.238 681.347 236.756 681.375 234.216C683.663 234.426 690.252 234.344 689.897 230.467C689.597 227.181 683.971 229.406 682.007 229.761Z" fill="#AFB0E9"/>
<path d="M652.078 256.497C652.484 254.274 654.706 252.312 654.014 250.161C653.535 248.674 651.806 247.939 650.241 247.903C648.675 247.866 647.137 248.331 645.571 248.375C644.552 248.321 643.531 248.335 642.514 248.418C639.406 248.928 637.49 252.177 634.562 253.332C632.781 254.035 630.78 253.9 628.928 254.386C624.724 255.488 622.064 259.451 619.125 262.646C614.377 267.785 608.19 271.384 601.368 272.975C598.977 273.527 596.408 273.881 594.508 275.429C591.992 277.48 591.372 280.995 590.812 284.188C589.266 293.005 586.902 301.66 583.752 310.041L593.735 311.312C595.633 311.554 597.599 311.791 599.428 311.23C600.757 310.73 602.016 310.061 603.173 309.24C607.619 306.487 612.595 304.695 617.779 303.981C620.393 303.623 623.134 303.558 625.587 304.527C628.041 305.496 630.145 307.694 630.351 310.318C631.412 309.989 632.542 309.953 633.622 310.215C634.701 310.477 635.689 311.027 636.48 311.805C638.043 313.394 639.067 315.432 639.407 317.632C639.67 318.995 639.933 320.627 641.2 321.198C642.234 321.665 643.42 321.162 644.551 321.072C648.389 320.766 651.574 325.23 655.346 324.461C659.392 323.637 660.385 317.593 664.332 316.382C666.599 315.687 669.779 316.532 670.865 314.429C671.821 312.575 669.912 310.436 670.109 308.36C670.352 305.804 673.374 304.719 675.705 303.628C683.738 299.868 687.55 289.083 683.657 281.129C681.351 276.416 676.813 272.706 675.974 267.529C675.33 263.545 676.904 258.9 674.358 255.765C673.062 254.17 670.869 253.289 670.099 251.386C669.614 250.188 669.808 248.829 669.547 247.563C669.286 246.298 668.179 244.974 666.927 245.302C663.29 246.254 662.129 257.461 660.182 260.183C657.222 264.322 651.146 261.596 652.078 256.497Z" fill="#AFB0E9"/>
<path d="M584.856 233.994C583.613 233.647 582.256 233.304 581.065 233.801C579.875 234.298 579.179 236.042 580.135 236.907C587.612 236.616 595.135 236.328 602.548 237.341C611.09 238.508 619.543 241.398 628.122 240.548C623.221 239.106 618.24 237.953 613.203 237.095L604.805 235.495C602.552 235.024 600.275 234.673 597.985 234.443C593.194 234.049 589.567 235.312 584.856 233.994Z" fill="#AFB0E9"/>
<path d="M592.341 208.02C591.72 207.968 590.952 207.923 590.63 208.456C590.324 208.964 590.675 209.636 590.51 210.207C590.284 210.986 589.261 211.185 588.455 211.079C587.649 210.973 586.778 210.719 586.064 211.106C585.701 211.353 585.429 211.71 585.288 212.125C585.147 212.539 585.144 212.988 585.28 213.403C585.572 214.229 586.044 214.98 586.662 215.602C587.718 216.929 588.922 218.133 590.249 219.191C592.819 221.083 596.301 221.994 597.919 224.741C598.147 225.273 598.498 225.745 598.943 226.116C599.72 226.607 600.734 226.234 601.57 225.852L604.503 224.516C605.031 224.326 605.503 224.006 605.874 223.586C606.544 222.679 606.132 221.39 605.57 220.413C605.008 219.436 604.288 218.425 604.408 217.306C604.624 215.309 607.197 214.545 608.256 212.836C609.323 211.114 608.628 208.895 608.751 206.875C608.895 204.512 610.384 201.438 607.989 199.672C605.953 198.171 604.007 199.558 602.546 201.215C599.464 204.708 598.007 208.492 592.341 208.02Z" fill="#AFB0E9"/>
<path d="M610.142 172.711C611.143 174.623 613.23 175.764 614.322 177.626C615.505 179.644 615.37 182.252 616.654 184.208C617.971 186.215 620.622 187.281 621.361 189.564C622.167 192.056 620.337 195.086 621.796 197.263C622.068 197.619 622.411 197.915 622.803 198.132C623.196 198.349 623.629 198.482 624.076 198.523C624.523 198.564 624.974 198.512 625.399 198.37C625.825 198.228 626.216 198 626.549 197.699C627.164 197.031 627.493 196.15 627.466 195.244C627.439 194.337 627.058 193.477 626.405 192.847C625.541 192.062 624.301 191.722 623.58 190.805C623.205 190.276 622.955 189.668 622.849 189.028C622.456 187.183 622.519 185.269 623.032 183.454C623.225 182.993 623.274 182.485 623.173 181.995C622.848 181.054 621.571 180.988 620.674 180.551C618.638 179.559 618.687 176.693 619.043 174.46C618.806 175.946 613.498 173.419 612.942 172.577C611.838 170.904 612.439 167.678 612.221 165.83C609.837 166.976 608.918 170.373 610.142 172.711Z" fill="#AFB0E9"/>
<path d="M556.671 202.129C555.691 201.035 554.216 199.891 552.902 200.551C551.9 201.054 551.625 202.437 552.017 203.485C552.496 204.503 553.232 205.379 554.154 206.026C556.891 208.278 559.839 210.31 562.226 212.927C566.499 217.611 568.763 223.932 573.41 228.247C574.344 229.247 575.581 229.915 576.932 230.148C578.285 230.273 579.806 229.409 579.961 228.061C580.09 226.951 579.314 225.958 578.556 225.136C576.751 223.177 574.774 221.374 573.07 219.328C572.283 218.542 571.788 217.511 571.668 216.407C571.659 215.305 572.667 214.151 573.737 214.424C572.435 214.092 571.47 211.929 569.559 211.523C567.963 211.183 567.576 212.169 565.676 211.356C562.052 209.805 559.209 204.963 556.671 202.129Z" fill="#AFB0E9"/>
<path d="M641.828 95.6169C640.788 95.3087 639.766 94.9445 638.766 94.526C636.075 93.7203 632.515 95.6932 632.873 98.4726C633.112 100.319 634.835 101.564 635.786 103.166C637.197 105.542 636.821 108.555 636.08 111.215C635.898 112.039 635.551 112.817 635.062 113.505C634.377 114.231 633.558 114.818 632.65 115.235C629.016 117.268 625.812 119.983 623.214 123.232C622.931 123.532 622.734 123.902 622.644 124.303C622.515 125.242 623.461 125.925 623.996 126.708C625.183 128.447 624.325 130.786 624.442 132.887C624.424 133.184 624.483 133.481 624.612 133.749C624.741 134.017 624.937 134.248 625.18 134.42C625.896 134.782 626.744 134.166 627.132 133.465C628.42 131.138 627.45 127.403 629.865 126.281C630.322 126.069 630.876 125.98 631.181 125.579C631.665 124.944 631.198 124.004 631.443 123.245C631.811 122.105 633.374 122.054 634.573 122.104C636.64 122.19 638.705 121.916 640.676 121.294C641.45 121.11 642.152 120.705 642.697 120.127C643.419 119.228 643.355 117.95 643.21 116.807C642.488 111.11 640.678 105.603 637.88 100.584C640.002 100.855 642.311 101.089 644.141 99.9857C645.167 99.3681 646.396 97.5211 645.888 96.2639C645.084 94.2759 643.631 95.9493 641.828 95.6169Z" fill="#AFB0E9"/>
<path d="M369.812 126.952C370.066 128.31 370.315 129.74 369.869 131.048C369.423 132.357 368.019 133.45 366.693 133.049C365.664 132.738 365.07 131.706 364.339 130.919C360.276 126.544 351.109 129.077 348.599 123.664C347.575 121.455 348.271 118.808 347.572 116.476C347.132 115.128 346.255 113.965 345.079 113.168C343.903 112.372 342.496 111.987 341.077 112.075C339.783 112.261 338.524 112.636 337.339 113.188C329.403 116.358 321.072 118.436 312.575 119.366C310.96 119.464 309.362 119.754 307.816 120.23C304.327 121.491 301.943 124.718 300.246 128.011C298.55 131.303 297.297 134.868 295.022 137.793C292.632 140.867 289.282 143.02 286.157 145.349C284.953 146.122 283.951 147.17 283.233 148.406C282.555 149.793 282.593 151.407 282.646 152.949L283.285 171.68C283.367 174.089 283.47 176.584 284.551 178.74C285.901 181.433 288.568 183.196 290.418 185.574C292.305 188.019 293.289 191.038 293.202 194.123C293.162 195.362 293.039 196.829 294.007 197.608C294.596 197.989 295.285 198.186 295.987 198.176L321.388 200.25C325.857 200.614 330.808 201.214 333.726 204.61C335.103 206.212 336.209 208.517 338.317 208.689C339.222 208.763 340.102 208.392 341.007 208.321C343.29 208.141 345.295 209.869 346.56 211.772C348.476 214.673 349.345 218.138 349.026 221.597C348.818 223.768 348.144 225.879 347.998 228.056C347.444 236.337 354.482 243.531 354.619 251.83C354.699 256.711 352.376 261.271 350.111 265.599C353.766 271.122 350.773 278.478 352.228 284.935C353.609 291.061 358.73 295.857 360.006 302.006C360.59 304.82 360.624 308.284 363.112 309.734C364.204 310.265 365.415 310.507 366.627 310.436C373.942 310.523 381.173 308.881 387.729 305.644C390.806 304.121 393.995 301.848 394.532 298.463C394.966 295.734 393.578 292.682 394.99 290.304C396.655 287.503 400.918 287.725 403.367 285.571C407.339 282.076 404.241 275.411 405.851 270.378C407.298 265.854 412.278 263.45 414.746 259.389C415.718 257.643 416.415 255.758 416.814 253.801C417.944 249.123 418.648 244.352 418.917 239.548C418.983 236.629 419.198 233.715 419.563 230.818C422.225 214.324 438.572 203.279 443.88 187.434C444.386 185.921 444.624 183.906 443.275 183.049C442.474 182.668 441.567 182.574 440.705 182.781L428.995 184.254C427.541 184.437 425.999 184.607 424.663 184.005C423.328 183.402 422.37 181.717 423.079 180.437C425.068 176.844 420.977 172.303 419.159 168.62C414.264 158.705 408.436 149.276 401.751 140.46C401.323 140.007 401.055 139.427 400.988 138.808L404.311 138.918C403.19 134.903 401.338 130.509 397.427 129.04C395.224 128.212 392.783 128.499 390.432 128.627C383.697 128.994 376.477 127.98 369.812 126.952Z" fill="#AFB0E9"/>
<path d="M390.437 36.4679C392.199 38.3347 394.174 40.3139 396.724 40.6392C401.228 41.214 404.466 36.5685 406.527 32.5335C406.604 33.5622 407.079 34.5206 407.853 35.2049C408.627 35.8892 409.638 36.2453 410.671 36.1976C411.782 36.0111 412.843 35.5973 413.787 34.9823C422.71 30.1183 432.705 27.5411 442.873 27.4823C442.776 26.714 442.967 25.9368 443.41 25.3007C443.853 24.6647 444.516 24.2148 445.272 24.0379C447.34 23.629 449.202 25.412 450.199 27.264C451.197 29.1161 451.818 31.2628 453.403 32.6491C454.987 34.0354 458.055 33.9751 458.681 31.9675C459.282 30.0402 457.269 28.3966 455.597 27.2604C453.924 26.1241 452.162 24.021 453.288 22.3442C461.832 20.4577 470.428 18.5642 479.171 18.1892C480.659 18.2409 482.142 17.9861 483.528 17.4406C484.861 16.788 485.921 15.3066 485.562 13.869C483.654 14.3164 481.656 14.1868 479.822 13.4969C477.989 12.807 476.402 11.588 475.266 9.9953C487.397 8.99679 500.299 8.1457 511.05 13.8393C512.34 16.6018 505.765 18.9001 507.524 21.3917C508.085 22.1864 509.209 22.2796 510.183 22.2976C517.654 22.436 525.168 22.5716 532.555 21.4466C535.254 21.0355 537.98 20.4551 540.69 20.7885C545.204 21.3438 549.065 24.348 553.506 25.3275C555.313 25.7261 557.34 25.7396 558.864 24.691C560.387 23.6424 561.042 21.2546 559.794 19.8914C563.975 15.8038 570.915 16.8169 576.431 18.7739C581.947 20.7308 587.173 23.8867 593.011 24.3229C597.197 24.6357 601.442 23.5125 605.579 24.2264C608.178 24.6751 610.598 25.8287 613.139 26.5374C617.944 27.8778 623.027 27.5948 628.017 27.6594C640.747 27.8304 653.338 30.326 665.167 35.0226C666.705 35.5223 668.115 36.3532 669.296 37.4564C670.397 38.6321 670.958 40.4589 670.219 41.8883L657.996 40.1069C659.147 42.3682 662.127 42.7536 664.546 43.5337C666.966 44.3138 669.474 46.979 668.02 49.0597C665.399 48.2271 663.023 50.8416 661.699 53.247C660.374 55.6525 658.761 58.5334 656.013 58.6799C653.553 58.8111 650.578 56.7216 648.974 58.5872C651.19 61.375 653.087 64.4002 654.63 67.6071C656.215 70.8992 657.343 75.0475 655.202 78.0095C654.865 78.5383 654.354 78.9335 653.757 79.1273C652.008 79.5689 650.872 77.435 649.617 76.1416C648.037 74.5117 645.647 74.0501 643.507 73.2857C641.367 72.5213 639.112 71.0176 638.945 68.7563C638.841 67.3494 639.585 66.0415 640.134 64.7412C641.056 62.5494 641.459 60.1752 641.312 57.8028C641.192 55.8943 640.656 53.9089 639.282 52.5754C637.907 51.2419 635.535 50.8188 634.06 52.0402C633.371 52.6101 632.82 53.5217 631.926 53.5558C630.346 53.616 629.134 50.8693 627.863 51.8069C628.012 52.806 627.804 53.8255 627.276 54.6873C623.484 57.9768 617.659 56.5852 612.77 57.7472C610.446 58.4108 608.22 59.3803 606.152 60.6301C605.379 60.9601 604.72 61.5112 604.261 62.2139C603.65 63.3968 604.323 64.9117 605.399 65.6981C606.539 66.3959 607.821 66.8323 609.151 66.9758C615.111 68.1017 621.158 69.8446 625.863 73.6628C630.568 77.4812 633.654 83.793 632.165 89.6582L620.412 78.4565C620.858 83.1599 621.112 87.8762 621.172 92.6055C621.248 93.5289 621.121 94.4577 620.799 95.327C619.962 97.1729 617.691 97.7941 615.701 98.2016C615.147 98.3065 614.622 98.527 614.16 98.8486C613.698 99.1702 613.31 99.5857 613.02 100.068C612.731 100.55 612.547 101.088 612.48 101.646C612.414 102.204 612.467 102.769 612.635 103.306C613.342 105.604 615.105 107.396 616.719 109.182C618.333 110.968 619.922 112.998 620.133 115.393C620.344 117.788 618.533 120.488 616.128 120.321C614.305 120.195 612.952 118.567 612.175 116.918C611.397 115.268 610.935 113.431 609.766 112.029C606.23 107.787 598.288 109.604 595.12 105.082C594.312 105.996 593.752 107.1 593.493 108.29C593.234 109.48 593.284 110.717 593.638 111.882C595.112 110.962 597.129 111.817 598.237 113.154C599.344 114.491 599.866 116.206 600.736 117.708C601.909 119.734 603.777 121.531 603.94 123.865C603.897 124.748 603.912 125.633 603.985 126.513C604.276 127.928 605.475 128.944 606.306 130.126C608.239 132.877 608.144 136.657 606.897 139.778C605.651 142.899 603.412 145.508 601.194 148.037C597.32 152.453 593.367 156.844 588.775 160.512C587.464 161.559 586.065 162.588 585.249 164.052C584.433 165.515 584.391 167.569 585.645 168.682C584.748 168.727 583.139 169.167 582.241 169.212C581.926 165.621 581.857 162.013 582.036 158.412C578.494 156.716 574.681 161.259 575.138 165.151C575.595 169.043 578.417 172.166 580.427 175.533C581.896 177.996 582.988 180.867 582.498 183.691C582.007 186.514 579.48 189.119 576.618 188.87C572.066 188.474 570.162 181.955 565.654 181.209C565.256 181.116 564.839 181.157 564.467 181.326C563.798 181.693 563.682 182.586 563.644 183.346C563.46 187.079 563.3 190.96 564.761 194.401C566.898 199.435 572.418 203.664 571.26 209.007C565.022 206.115 561.778 199.136 560.306 192.433C558.833 185.73 558.587 178.694 555.948 172.357C553.943 174.92 549.73 172.801 547.898 170.113C546.162 167.564 545.093 164.615 543.408 162.032C541.724 159.449 539.143 157.136 536.057 156.994C532.821 156.845 530.015 159.06 527.547 161.152C525.518 162.873 523.434 164.662 522.248 167.041C520.522 170.502 520.973 174.583 520.89 178.448C520.8 182.627 519.912 187.036 517.057 190.095C514.202 193.154 508.932 194.219 505.782 191.462C504.138 190.023 503.342 187.872 502.633 185.808C499.215 175.858 496.368 165.721 494.107 155.448C493.578 157.792 491.514 160.815 489.542 159.433C489.099 159.062 488.741 158.601 488.49 158.082C484.811 151.863 477.999 148.133 471.117 145.896C464.234 143.66 456.992 142.617 450.186 140.159C446.372 138.781 442.729 136.971 439.328 134.764C438.462 136.034 437.955 137.515 437.864 139.049C437.772 140.583 438.098 142.113 438.807 143.477C440.316 146.144 443.733 147.686 446.657 146.754C448.169 146.273 449.445 145.226 450.945 144.709C452.444 144.192 454.457 144.446 455.113 145.887C455.74 147.267 454.792 148.935 455.262 150.376C455.979 152.569 459.296 152.738 460.456 154.734C461.319 156.22 460.609 158.192 459.377 159.39C458.144 160.589 456.5 161.246 454.996 162.08C450.116 164.787 446.646 169.408 442.381 173.003C438.116 176.598 432.099 179.223 427.016 176.917C428.227 170.797 420.919 166.304 419.575 160.212C419.132 158.207 419.362 156.077 418.73 154.123C417.815 151.294 415.299 149.349 413.235 147.205C410.731 144.577 408.78 141.474 407.498 138.082C406.216 134.689 405.628 131.074 405.769 127.451C405.88 124.933 406.344 122.375 405.769 119.921C405.194 117.467 403.157 115.092 400.633 115.203C394.868 115.457 387.605 115.884 384.58 110.982C383.501 109.233 383.031 106.671 384.592 105.33C385.693 104.385 387.318 104.474 388.764 104.616L401.753 105.89C404.791 106.188 408.075 106.434 410.682 104.85C413.289 103.266 414.419 99.0606 412.005 97.1968C410.241 95.835 407.081 95.9088 406.569 93.7435C406.141 91.9402 408.143 89.8941 407.062 88.3871C406.287 87.3065 404.545 87.6063 403.489 88.4163C402.433 89.2264 401.667 90.4111 400.486 91.0244C398.413 92.1004 395.936 91.0764 393.706 90.3804C391.476 89.6845 388.487 89.6254 387.405 91.6913C386.196 94.0017 388.478 97.0292 387.278 99.3444C385.691 102.405 380.316 100.663 378.086 103.296C375.529 106.317 379.827 110.822 378.964 114.682C377.863 115.226 376.639 115.476 375.412 115.407C374.185 115.338 372.997 114.953 371.964 114.289C370.948 113.6 370.138 112.649 369.62 111.537C369.103 110.425 368.897 109.193 369.025 107.974C369.239 106.238 370.146 104.466 369.538 102.825C369.047 101.498 367.711 100.708 366.47 100.024L353.848 93.0668C352.676 95.2353 354.157 97.9237 356.01 99.5524C357.863 101.181 360.184 102.408 361.401 104.551C362.171 106.036 362.344 107.759 361.884 109.367C361.424 110.974 360.366 112.346 358.926 113.202C358.745 113.326 358.54 113.41 358.324 113.448C358.108 113.485 357.887 113.476 357.675 113.42C357.473 113.302 357.298 113.145 357.158 112.958C357.019 112.771 356.919 112.558 356.863 112.331C354.636 106.646 351.292 101.041 345.946 98.0715C340.6 95.1018 332.919 95.7123 329.413 100.715C328.58 101.903 328.021 103.258 327.296 104.514C323.442 111.188 315.18 114.349 307.461 114.143C306.706 114.184 305.955 114.008 305.298 113.635C304.05 112.776 304.106 110.952 304.297 109.452L305.108 103.085C305.27 101.807 305.506 100.394 306.52 99.5958C307.95 98.4708 310.013 99.1807 311.834 99.1546C313.214 99.0901 314.541 98.6041 315.634 97.7624C316.727 96.9207 317.535 95.764 317.947 94.4491C318.315 93.1212 318.313 91.7184 317.94 90.3917C317.568 89.0651 316.84 87.865 315.834 86.9206C314.999 86.1387 313.879 85.1564 314.32 84.1022C314.496 83.8107 314.734 83.5611 315.017 83.371C315.3 83.1809 315.621 83.055 315.958 83.002C319.229 82.0545 322.685 81.8061 325.902 80.6881C329.119 79.5701 332.238 77.2828 333 73.9712C333.233 72.9563 333.339 71.727 334.253 71.2238C334.712 71.0307 335.204 70.9304 335.702 70.9286C337.446 70.6811 339.034 69.7915 340.153 68.4347C341.272 67.078 341.842 65.3525 341.749 63.598C343.291 62.5235 345.45 63.3139 346.942 64.4566C348.433 65.5994 349.75 67.1092 351.564 67.6018C354.946 68.5199 358.214 65.5333 361.719 65.5195C363.192 65.5137 364.718 66.0335 366.105 65.5351C367.51 65.0298 368.35 63.6341 369.429 62.603C370.507 61.5719 372.4 60.943 373.396 62.0538L372.548 55.7864C374.256 56.2169 376.037 56.2778 377.771 55.9651C379.505 55.6524 381.152 54.9734 382.601 53.9735L371.638 50.2786C371.256 50.1835 370.904 49.9957 370.613 49.7318C369.815 48.8757 370.607 47.5417 371.255 46.5685C372.806 44.2404 373.066 40.4056 370.516 39.2465C368.776 38.4554 366.778 39.4051 365.108 40.3341L357.106 44.7845C356.852 46.3016 358.712 47.1614 359.864 48.1834C360.562 48.8017 361.055 49.6159 361.28 50.5191C361.505 51.4223 361.451 52.3722 361.125 53.2441C360.798 54.116 360.215 54.8691 359.452 55.4045C358.689 55.9398 357.781 56.2324 356.848 56.2438C357.375 56.9272 357.741 57.7199 357.92 58.5635C358.098 59.4071 358.083 60.2798 357.878 61.1171L352.494 61.5033C351.89 61.6246 351.262 61.5023 350.748 61.1633C350.172 60.6532 350.25 59.7593 350.116 59.0028C349.794 57.1768 348.002 55.897 346.172 55.5688C344.343 55.2407 342.471 55.6613 340.66 56.0766C339.891 56.3527 339.046 56.3333 338.29 56.0221C337.857 55.7413 337.528 55.3268 337.353 54.8418C336.559 52.921 337.301 50.6633 338.577 49.0207C339.852 47.3781 341.598 46.1773 343.167 44.8098C346.917 41.5276 349.672 37.2648 351.121 32.5028C354.085 31.2642 357.153 29.5812 360.117 28.3426C364.687 26.035 369.811 25.0447 374.913 25.483L384.95 25.6743C387.922 25.7309 390.974 25.8034 393.722 26.9335C396.47 28.0635 398.884 30.5076 399.074 33.4662C399.131 33.8012 399.102 34.1451 398.99 34.4658C398.877 34.7865 398.685 35.0734 398.43 35.2996C398.042 35.5108 397.603 35.6096 397.161 35.5849C394.39 35.682 393.208 36.3708 390.437 36.4679Z" fill="#AFB0E9"/>
<path d="M310.435 67.8446C310.828 67.4744 311.11 67.0035 311.251 66.4837C311.392 65.9639 311.387 65.4153 311.236 64.8982C310.282 64.5309 309.244 64.4366 308.239 64.6259C307.234 64.8152 306.302 65.2806 305.548 65.9697C304.953 66.5696 304.441 67.2453 304.024 67.9793C302.705 70.1257 301.538 72.6894 302.303 75.0887C302.365 75.3503 302.479 75.5969 302.638 75.814C302.797 76.0311 302.998 76.2143 303.229 76.3529C303.572 76.49 303.941 76.5477 304.309 76.5216C305.762 76.5197 307.214 76.4306 308.656 76.2548C309.542 76.1467 310.57 75.8973 310.913 75.0753C311.363 73.9949 310.274 72.7722 310.591 71.6459C310.8 71.1423 311.116 70.6901 311.519 70.3211C311.718 70.1352 311.871 69.9056 311.966 69.6503C312.061 69.3951 312.095 69.1213 312.066 68.8507C311.937 68.3222 311.126 68.0224 310.834 68.4815" fill="#AFB0E9"/>
<path d="M317.97 58.1016C316.679 57.806 315.348 57.7226 314.031 57.8549C313.739 57.8462 313.451 57.9117 313.191 58.0451C312.94 58.2298 312.758 58.4927 312.674 58.7922C312.396 59.6832 312.464 60.646 312.866 61.489C313.267 62.3319 313.972 62.9931 314.841 63.3407C315.314 63.4493 315.767 63.6309 316.184 63.8792C317.298 64.7414 316.588 66.5036 316.799 67.8943C317.036 69.4558 318.551 70.7666 318.273 72.3214C318.054 73.5463 316.743 74.5163 316.954 75.7426C317.175 77.0269 318.809 77.4129 320.111 77.5157C320.866 77.6476 321.643 77.5588 322.349 77.26C323.055 76.7778 323.558 76.0515 323.76 75.2212C324.293 73.6381 324.517 71.9677 324.42 70.3005C324.414 69.5422 324.223 68.7967 323.864 68.1286C323.471 67.5993 323.037 67.1028 322.564 66.6439C320.068 63.7487 322.696 59.4301 317.97 58.1016Z" fill="#AFB0E9"/>
<path opacity="0.8" d="M646.098 284.902C646.098 284.902 454.982 175.476 372.704 196.209C372.704 196.209 198.333 214.927 178.124 256.105C178.124 256.105 122.695 83.3271 102.486 77.5679" stroke="#657989" stroke-width="2" stroke-miterlimit="10"/>
<path opacity="0.8" d="M178.124 256.106C210.169 170.868 498.864 76.416 498.864 76.416C457.869 86.7827 372.704 196.209 372.704 196.209C372.704 196.209 192.559 65.4734 102.486 77.5679C102.486 77.5679 499.153 90.5262 646.098 284.902" stroke="#657989" stroke-width="2" stroke-miterlimit="10"/>
<path d="M102.485 85.9187C107.109 85.9187 110.858 82.1798 110.858 77.5677C110.858 72.9556 107.109 69.2168 102.485 69.2168C97.8616 69.2168 94.1133 72.9556 94.1133 77.5677C94.1133 82.1798 97.8616 85.9187 102.485 85.9187Z" fill="#646281"/>
<path d="M178.124 264.456C182.748 264.456 186.496 260.717 186.496 256.105C186.496 251.493 182.748 247.754 178.124 247.754C173.5 247.754 169.752 251.493 169.752 256.105C169.752 260.717 173.5 264.456 178.124 264.456Z" fill="#646281"/>
<path d="M498.863 84.7668C503.487 84.7668 507.235 81.028 507.235 76.4159C507.235 71.8038 503.487 68.0649 498.863 68.0649C494.24 68.0649 490.491 71.8038 490.491 76.4159C490.491 81.028 494.24 84.7668 498.863 84.7668Z" fill="#646281"/>
<path d="M646.098 293.253C650.722 293.253 654.47 289.514 654.47 284.902C654.47 280.29 650.722 276.551 646.098 276.551C641.474 276.551 637.726 280.29 637.726 284.902C637.726 289.514 641.474 293.253 646.098 293.253Z" fill="#646281"/>
<path d="M372.704 204.56C377.328 204.56 381.076 200.821 381.076 196.209C381.076 191.597 377.328 187.858 372.704 187.858C368.08 187.858 364.332 191.597 364.332 196.209C364.332 200.821 368.08 204.56 372.704 204.56Z" fill="#646281"/>
</svg>
