<svg width="201" height="201" viewBox="0 0 201 201" fill="none" xmlns="http://www.w3.org/2000/svg">
<g clip-path="url(#clip0)">
<g opacity="0.5">
<path opacity="0.5" d="M100.903 200.234C156.132 200.234 200.903 155.463 200.903 100.234C200.903 45.0059 156.132 0.234375 100.903 0.234375C45.6748 0.234375 0.90332 45.0059 0.90332 100.234C0.90332 155.463 45.6748 200.234 100.903 200.234Z" fill="url(#paint0_linear)"/>
</g>
<path d="M101.098 197.487C155.162 197.487 198.989 153.659 198.989 99.5955C198.989 45.5317 155.162 1.70435 101.098 1.70435C47.0344 1.70435 3.20703 45.5317 3.20703 99.5955C3.20703 153.659 47.0344 197.487 101.098 197.487Z" fill="#F5F5F5"/>
<path d="M101.19 197.873C120.318 197.904 139.032 192.304 154.998 181.77C151.391 162.057 137.663 160.934 137.663 160.934H61.9609C61.9609 160.934 49.0068 161.997 44.9609 180.131C61.422 191.71 81.0646 197.908 101.19 197.873Z" fill="#657989"/>
<path d="M100.15 144.782C126.245 144.782 147.399 123.627 147.399 97.5324C147.399 71.4373 126.245 50.2831 100.15 50.2831C74.0546 50.2831 52.9004 71.4373 52.9004 97.5324C52.9004 123.627 74.0546 144.782 100.15 144.782Z" fill="#333333"/>
<path opacity="0.1" d="M84.9004 136.888H115.175V161.108C115.175 165.122 113.581 168.972 110.744 171.81C107.906 174.649 104.057 176.244 100.044 176.246C96.0289 176.246 92.1786 174.651 89.3398 171.812C86.501 168.973 84.9061 165.123 84.9061 161.108V136.888H84.9004Z" fill="black"/>
<path d="M85.8604 135.764H114.227C114.482 135.764 114.726 135.866 114.906 136.046C115.086 136.226 115.187 136.47 115.187 136.724V159.985C115.187 161.974 114.796 163.943 114.035 165.78C113.274 167.617 112.159 169.287 110.752 170.693C109.346 172.099 107.677 173.214 105.839 173.975C104.002 174.735 102.032 175.126 100.044 175.125C96.0291 175.125 92.1788 173.531 89.3399 170.692C86.5011 167.853 84.9063 164.003 84.9063 159.988V136.724C84.9062 136.471 85.0066 136.227 85.1854 136.048C85.3641 135.868 85.6068 135.766 85.8604 135.764Z" fill="#FDB797"/>
<path opacity="0.1" d="M84.9551 148.32C94.7125 151.966 105.453 151.995 115.23 148.403V144.678H84.9551V148.32Z" fill="black"/>
<path d="M100.149 150.346C124.116 150.346 143.545 130.917 143.545 106.951C143.545 82.9841 124.116 63.5553 100.149 63.5553C76.1827 63.5553 56.7539 82.9841 56.7539 106.951C56.7539 130.917 76.1827 150.346 100.149 150.346Z" fill="#FDB797"/>
<path opacity="0.1" d="M69.2383 67.4779C69.2383 67.4779 87.5277 104.601 139.118 83.0424L127.106 64.2086L105.814 56.5668L69.2383 67.4779Z" fill="black"/>
<path d="M69.2383 66.9335C69.2383 66.9335 87.5277 104.057 139.118 82.4922L127.106 63.6584L105.814 56.0166L69.2383 66.9335Z" fill="#333333"/>
<path d="M69.0778 64.4177C70.311 60.6003 72.4423 57.1346 75.2927 54.3117C83.8285 45.8733 97.8228 44.0939 105 34.4722C106.72 37.1427 105.39 41.2487 102.422 42.3948C109.298 42.349 117.267 41.7472 121.155 36.0911C122.116 38.3281 122.422 40.7919 122.038 43.1962C121.654 45.6004 120.596 47.8463 118.986 49.6727C125.081 49.9593 131.594 54.0854 131.978 60.1742C132.241 64.2315 129.685 68.071 126.364 70.3977C123.043 72.7243 118.998 73.7931 115.029 74.667C103.442 77.2258 61.5162 87.9335 69.0778 64.4177Z" fill="#333333"/>
<path d="M56.7374 114.481C58.9672 114.481 60.7747 111.092 60.7747 106.911C60.7747 102.73 58.9672 99.3405 56.7374 99.3405C54.5077 99.3405 52.7002 102.73 52.7002 106.911C52.7002 111.092 54.5077 114.481 56.7374 114.481Z" fill="#FDB797"/>
<path d="M143.539 114.481C145.769 114.481 147.576 111.092 147.576 106.911C147.576 102.73 145.769 99.3405 143.539 99.3405C141.309 99.3405 139.502 102.73 139.502 106.911C139.502 111.092 141.309 114.481 143.539 114.481Z" fill="#FDB797"/>
</g>
<defs>
<linearGradient id="paint0_linear" x1="100.903" y1="200.234" x2="100.903" y2="0.234375" gradientUnits="userSpaceOnUse">
<stop stop-color="#808080" stop-opacity="0.25"/>
<stop offset="0.54" stop-color="#808080" stop-opacity="0.12"/>
<stop offset="1" stop-color="#808080" stop-opacity="0.1"/>
</linearGradient>
<clipPath id="clip0">
<rect width="200" height="200" fill="white" transform="translate(0.90332 0.234375)"/>
</clipPath>
</defs>
</svg>
