<svg width="266" height="151" viewBox="0 0 266 151" fill="none" xmlns="http://www.w3.org/2000/svg">
<path d="M256.673 66.4093H9.16786C6.85483 66.4146 4.63732 68.1737 3.00176 71.3006C1.3662 74.4276 0.446128 78.6671 0.443359 83.0893V134.009C0.446128 138.431 1.3662 142.671 3.00176 145.798C4.63732 148.925 6.85483 150.684 9.16786 150.689H256.673C258.986 150.684 261.203 148.925 262.839 145.798C264.475 142.671 265.395 138.431 265.397 134.009V83.0893C265.395 78.6671 264.475 74.4276 262.839 71.3006C261.203 68.1737 258.986 66.4146 256.673 66.4093ZM264.479 134.009C264.476 137.966 263.652 141.758 262.189 144.556C260.726 147.353 258.742 148.927 256.673 148.933H9.16786C7.09851 148.927 5.11478 147.353 3.65153 144.556C2.18827 141.758 1.36488 137.966 1.36184 134.009V83.0893C1.36488 79.133 2.18827 75.3404 3.65153 72.5429C5.11478 69.7453 7.09851 68.1711 9.16786 68.1653H256.673C258.742 68.1711 260.726 69.7453 262.189 72.5429C263.652 75.3404 264.476 79.133 264.479 83.0893V134.009Z" fill="#3F3D56"/>
<path d="M251.091 58.7963H100.392C98.9838 58.7927 97.6337 57.5849 96.6378 55.4379C95.642 53.2909 95.0818 50.3799 95.0801 47.3436V12.3819C95.0818 9.3456 95.642 6.43467 96.6378 4.28765C97.6337 2.14064 98.9838 0.932833 100.392 0.929199H251.091C252.499 0.932833 253.849 2.14064 254.845 4.28765C255.841 6.43467 256.401 9.3456 256.403 12.3819V47.3436C256.401 50.3799 255.841 53.2909 254.845 55.4379C253.849 57.5849 252.499 58.7927 251.091 58.7963ZM100.392 2.1349C99.1321 2.13799 97.924 3.21857 97.033 5.13959C96.142 7.06061 95.6407 9.6652 95.6393 12.3819V47.3436C95.6405 50.0607 96.1416 52.6658 97.0326 54.5873C97.9237 56.5087 99.1319 57.5896 100.392 57.5927H251.091C252.351 57.5898 253.559 56.5093 254.45 54.5883C255.341 52.6672 255.842 50.0625 255.844 47.3457V12.3819C255.842 9.6652 255.341 7.06061 254.45 5.13959C253.559 3.21857 252.351 2.13799 251.091 2.1349H100.392Z" fill="#CCCCCC"/>
<path d="M51.0623 137.581C45.3203 137.581 39.7073 135.879 34.933 132.688C30.1587 129.498 26.4376 124.964 24.2402 119.659C22.0429 114.354 21.4679 108.517 22.5881 102.885C23.7083 97.2537 26.4734 92.0807 30.5336 88.0205C34.5938 83.9603 39.7668 81.1953 45.3984 80.0751C51.0301 78.9549 56.8674 79.5298 62.1724 81.7272C67.4773 83.9245 72.0114 87.6456 75.2015 92.4199C78.3916 97.1942 80.0943 102.807 80.0943 108.549C80.0943 116.249 77.0356 123.633 71.591 129.078C66.1465 134.523 58.762 137.581 51.0623 137.581Z" fill="#657989"/>
<path d="M245.863 130.977H95.1625C94.2567 130.977 93.388 130.237 92.7474 128.92C92.1069 127.603 91.7471 125.816 91.7471 123.954C91.7471 122.091 92.1069 120.304 92.7474 118.987C93.388 117.67 94.2567 116.93 95.1625 116.93H245.863C246.769 116.93 247.638 117.67 248.278 118.987C248.919 120.304 249.279 122.091 249.279 123.954C249.279 125.816 248.919 127.603 248.278 128.92C247.638 130.237 246.769 130.977 245.863 130.977Z" fill="#CCCCCC"/>
<path d="M176.952 101.433H93.8085C93.0673 101.433 92.3564 100.693 91.8323 99.3761C91.3081 98.0589 91.0137 96.2725 91.0137 94.4097C91.0137 92.547 91.3081 90.7605 91.8323 89.4434C92.3564 88.1262 93.0673 87.3862 93.8085 87.3862H176.952C177.693 87.3862 178.404 88.1262 178.928 89.4434C179.452 90.7605 179.747 92.547 179.747 94.4097C179.747 96.2725 179.452 98.0589 178.928 99.3761C178.404 100.693 177.693 101.433 176.952 101.433Z" fill="#CCCCCC"/>
<path d="M132.92 50.3187C128.779 50.3187 124.73 49.0673 121.287 46.7227C117.843 44.3781 115.159 41.0457 113.574 37.1468C111.99 33.2479 111.575 28.9577 112.383 24.8186C113.191 20.6796 115.185 16.8776 118.114 13.8935C121.042 10.9094 124.773 8.87723 128.835 8.05392C132.897 7.23061 137.107 7.65317 140.933 9.26815C144.759 10.8831 148.03 13.618 150.331 17.1269C152.631 20.6358 153.859 24.7612 153.859 28.9813C153.859 34.6403 151.653 40.0676 147.726 44.0691C143.8 48.0707 138.473 50.3187 132.92 50.3187Z" fill="#E6E6E6"/>
<path d="M213.115 45.6273H162.319C162.014 45.6273 161.721 44.9524 161.505 43.7509C161.289 42.5494 161.168 40.9199 161.168 39.2208C161.168 37.5216 161.289 35.8921 161.505 34.6906C161.721 33.4892 162.014 32.8142 162.319 32.8142H213.115C213.421 32.8142 213.714 33.4892 213.929 34.6906C214.145 35.8921 214.267 37.5216 214.267 39.2208C214.267 40.9199 214.145 42.5494 213.929 43.7509C213.714 44.9524 213.421 45.6273 213.115 45.6273Z" fill="#E6E6E6"/>
<path d="M185.185 26.0572H161.949C161.742 26.0572 161.543 25.3658 161.397 24.1351C161.25 22.9044 161.168 21.2352 161.168 19.4947C161.168 17.7542 161.25 16.085 161.397 14.8542C161.543 13.6235 161.742 12.9321 161.949 12.9321H185.185C185.392 12.9321 185.591 13.6235 185.737 14.8542C185.884 16.085 185.966 17.7542 185.966 19.4947C185.966 21.2352 185.884 22.9044 185.737 24.1351C185.591 25.3658 185.392 26.0572 185.185 26.0572Z" fill="#E6E6E6"/>
</svg>
