<svg width="703" height="430" viewBox="0 0 703 430" fill="none" xmlns="http://www.w3.org/2000/svg">
<g clip-path="url(#clip0)">
<g opacity="0.5">
<path opacity="0.5" d="M702.989 0H419.854V277.505H702.989V0Z" fill="url(#paint0_linear)"/>
</g>
<path d="M701.568 2.13512H421.274V275.37H701.568V2.13512Z" fill="white"/>
<g opacity="0.5">
<path opacity="0.5" d="M673.111 24.823H449.732V198.273H673.111V24.823Z" fill="#657989"/>
</g>
<g opacity="0.5">
<path opacity="0.5" d="M603.732 144.266C603.61 137.424 600.815 130.901 595.946 126.095C591.56 121.785 585.662 116.84 579.271 113.849H579.232C576.525 112.531 573.625 111.654 570.641 111.253V100.636C572.821 98.6822 574.623 96.3436 575.955 93.737V94.5872C575.955 94.5872 586.135 84.301 585.902 72.2302C586.051 64.9812 582.567 57.0054 570.881 50.1653C543.747 34.3304 533.353 57.3558 531.374 62.6839C531.247 62.9418 531.151 63.2141 531.089 63.4951L531.011 63.7417C530.977 63.9915 530.977 64.2447 531.011 64.4945V64.5724C531.002 64.7063 531.002 64.8407 531.011 64.9747C531.011 66.7529 532.523 68.3883 535.086 69.7252C533.071 72.7334 531.771 76.1628 531.285 79.7508C530.799 83.3388 531.141 86.9904 532.283 90.4263C533.425 93.8621 535.338 96.9911 537.875 99.5739C540.412 102.157 543.506 104.125 546.92 105.328V112.142L546.395 111.149C546.395 111.149 542.768 113.323 538.09 116.659C530.252 122.246 519.455 131.098 517.833 138.412C515.238 150.093 517.833 199.532 517.833 199.532L604.815 200.83L603.732 144.266ZM576.085 93.6526L576.117 93.6202L576.085 93.6526ZM531.238 65.3446V65.3836V65.3446ZM531.4 65.7275V65.7794V65.7275ZM531.608 66.1039L531.647 66.1688L531.608 66.1039ZM531.861 66.4738L531.913 66.5452L531.861 66.4738ZM532.159 66.8373L532.231 66.9151L532.159 66.8373ZM532.503 67.1942L532.588 67.2786L532.503 67.1942ZM535.449 69.1411L535.54 69.1865L535.449 69.1411ZM532.892 67.5252L532.996 67.616L532.892 67.5252ZM533.321 67.8691L533.444 67.96L533.321 67.8691ZM533.794 68.2001L533.937 68.2974L533.794 68.2001ZM534.307 68.5246L534.476 68.6219L534.307 68.5246ZM534.858 68.8361L535.047 68.9399L534.858 68.8361Z" fill="url(#paint1_linear)"/>
</g>
<path d="M570.389 100.96H547.297V134.836H570.389V100.96Z" fill="#FDA57D"/>
<path opacity="0.05" d="M548.062 106.346C550.475 107.203 551.513 107.884 554.219 107.884C559.907 107.885 565.392 105.776 569.616 101.966V101.726H548.062V106.346Z" fill="black"/>
<path d="M554.991 107.119C567.744 107.119 578.083 96.7779 578.083 84.0219C578.083 71.2659 567.744 60.9251 554.991 60.9251C542.238 60.9251 531.899 71.2659 531.899 84.0219C531.899 96.7779 542.238 107.119 554.991 107.119Z" fill="#FDA57D"/>
<path d="M552.448 73.6125C563.847 73.6125 573.087 70.0997 573.087 65.7665C573.087 61.4332 563.847 57.9204 552.448 57.9204C541.049 57.9204 531.809 61.4332 531.809 65.7665C531.809 70.0997 541.049 73.6125 552.448 73.6125Z" fill="black"/>
<path d="M556.574 68.6609L575.559 80.219V94.4963C575.559 94.4963 600.325 69.4591 570.609 52.1251C540.892 34.7912 531.809 65.3381 531.809 65.3381C531.809 65.3381 540.062 71.9641 556.574 68.6609Z" fill="black"/>
<path d="M576.435 87.8703C577.711 87.8703 578.745 86.1473 578.745 84.0219C578.745 81.8965 577.711 80.1736 576.435 80.1736C575.159 80.1736 574.125 81.8965 574.125 84.0219C574.125 86.1473 575.159 87.8703 576.435 87.8703Z" fill="#FDA57D"/>
<g opacity="0.05">
<path opacity="0.05" d="M575.559 80.219L562.92 72.5287C559.488 73.2673 555.985 73.6307 552.474 73.6125C541.379 73.6125 532.36 70.2833 531.861 66.1104V66.1818C531.852 66.3115 531.852 66.4415 531.861 66.5712C531.861 70.9063 541.1 74.4172 552.5 74.4172C556.022 74.4378 559.535 74.0744 562.979 73.3334L575.611 81.0237L575.559 80.219Z" fill="black"/>
<path opacity="0.05" d="M575.56 94.5223V95.3464C575.56 95.3464 585.454 85.3393 585.227 73.593C584.994 84.9759 575.56 94.5223 575.56 94.5223Z" fill="black"/>
</g>
<path d="M546.777 111.46C546.777 111.46 521.512 126.62 518.988 137.99C516.464 149.36 518.988 197.462 518.988 197.462L603.621 198.727L602.544 143.682C602.422 137.021 599.697 130.673 594.953 125.997C588.633 119.787 579.076 112.2 569.512 111.46L558.145 132.941L546.777 111.46Z" fill="#4D8AF0"/>
<path opacity="0.05" d="M535.111 137.192C535.111 137.192 528.506 171.866 534.287 182.62L535.111 137.192Z" fill="black"/>
<path opacity="0.05" d="M582.969 137.192C582.969 137.192 589.574 171.866 583.793 182.62L582.969 137.192Z" fill="black"/>
<path d="M546.667 111.59L570.654 111.253L554.927 151.223L546.667 111.59Z" fill="white"/>
<path d="M546.667 109.118V111.59H570.609L570.654 109.118H546.667Z" fill="white"/>
<path d="M559.877 109.118H556.574V112.421H559.877V109.118Z" fill="black"/>
<path d="M546.667 111.59L541.717 116.548L552.448 134.836L546.667 111.59Z" fill="#4D8AF0"/>
<path d="M569.778 113.245L573.911 117.372L561.525 133.882L569.778 113.245Z" fill="#4D8AF0"/>
<path opacity="0.1" d="M546.667 111.59L541.717 116.548L552.448 134.836L546.667 111.59Z" fill="white"/>
<path opacity="0.1" d="M569.778 113.245L573.911 117.372L561.525 133.882L569.778 113.245Z" fill="white"/>
<path d="M558.223 110.766L545.02 166.447L553.273 178.83L564.004 166.447L558.223 110.766Z" fill="black"/>
<path d="M662.761 222.635H465.518V231.721H662.761V222.635Z" fill="#E0E0E0"/>
<path d="M631.294 240.806H496.986V249.892H631.294V240.806Z" fill="#E0E0E0"/>
<g opacity="0.5">
<path opacity="0.5" d="M284.125 74.3199H0.989258V351.825H284.125V74.3199Z" fill="url(#paint2_linear)"/>
</g>
<path d="M282.704 76.4549H2.41016V349.69H282.704V76.4549Z" fill="white"/>
<g opacity="0.5">
<path opacity="0.5" d="M254.247 99.1429H30.8682V272.593H254.247V99.1429Z" fill="#657989"/>
</g>
<g opacity="0.5">
<path opacity="0.5" d="M194.438 240.216H198.045L196.916 228.664H196.793C197.481 221.603 198.512 190.316 164.883 177.85L161.879 175.87L161.652 176.072V167.629C163.872 165.654 165.708 163.286 167.07 160.646V161.509C170.028 158.318 172.479 154.691 174.337 150.755C172.595 154.031 170.431 157.063 167.9 159.776V159.698C172.124 154.876 189.396 132.493 161.873 116.431C130.872 98.3446 125.019 128.69 125.019 128.69L127.491 132C127.491 132 121.49 144.019 121.49 149.691C121.491 154.673 123.036 159.532 125.912 163.599C128.788 167.667 132.853 170.743 137.548 172.405V179.608C135.31 180.426 104.198 192.465 104.198 228.658L99.8643 240.209L101.311 240.858V273.054H172.033C172.033 273.054 176.368 238.756 174.921 227.204L179.255 230.092V240.203H180.215V240.456H179.936L180.215 241.39V272.333H194.412V241.403L194.574 240.469H194.412L194.438 240.216ZM114.203 242.863L114.307 240.216L114.203 242.863Z" fill="url(#paint3_linear)"/>
</g>
<path d="M161.12 168.427H138.028V202.303H161.12V168.427Z" fill="#FDA57D"/>
<path opacity="0.05" d="M138.801 173.813C141.214 174.67 142.253 175.351 144.958 175.351C150.646 175.353 156.132 173.244 160.355 169.433V169.193H138.801V173.813Z" fill="black"/>
<path d="M145.729 174.585C158.483 174.585 168.821 164.245 168.821 151.489C168.821 138.733 158.483 128.392 145.729 128.392C132.976 128.392 122.638 138.733 122.638 151.489C122.638 164.245 132.976 174.585 145.729 174.585Z" fill="#FDA57D"/>
<path d="M147.307 140.255L166.291 147.686V161.963C166.291 161.963 191.077 136.958 161.341 119.605C134.622 104.03 129.782 122.791 126.421 126.4C126.343 126.483 126.282 126.582 126.242 126.689C126.201 126.797 126.183 126.911 126.187 127.026C126.191 127.14 126.218 127.253 126.266 127.357C126.314 127.461 126.382 127.555 126.466 127.633C129.769 130.741 132.591 143.201 147.307 140.255Z" fill="#4D4545"/>
<path d="M192.549 238.256H178.943V272.164H192.549V238.256Z" fill="#FDA57D"/>
<path d="M178.022 228.567V238.256H196.008L194.911 227.184L178.022 228.567Z" fill="white"/>
<path d="M103.297 238.256V272.859H114.366L115.651 240.793L103.297 238.256Z" fill="#FDA57D"/>
<path d="M146.191 189.817L138.158 180.128C138.158 180.128 106.08 191.199 106.08 227.184L115.767 238.256L114.385 272.859H171.119C171.119 272.859 175.271 236.873 173.889 225.802L178.042 228.573H194.645C194.645 228.573 201.03 189.817 160.906 177.363L146.191 189.817Z" fill="#235067"/>
<path d="M106.06 227.184L101.914 238.256L115.501 244.486L115.747 238.256L106.06 227.184Z" fill="white"/>
<path opacity="0.05" d="M132.455 184.008L137.892 196.177L145.659 189.791L138.158 180.952L132.455 184.008Z" fill="black"/>
<path d="M132.455 183.184L137.892 195.346L145.659 188.967L138.158 180.128L132.455 183.184Z" fill="white"/>
<path opacity="0.05" d="M161.34 177.409L166.291 180.712L152.263 193.918L147.352 189.655L161.34 177.409Z" fill="black"/>
<path d="M161.34 176.584L166.291 179.881L152.263 193.094L147.352 188.83L161.34 176.584Z" fill="white"/>
<path opacity="0.05" d="M116.767 235.199C116.752 224.478 120.23 214.044 126.674 205.476L116.767 235.199Z" fill="black"/>
<path opacity="0.05" d="M172.072 226.944V221.986L177.023 225.289L173.72 224.465L172.072 226.944Z" fill="black"/>
<path opacity="0.05" d="M178.678 238.502L178.944 239.391H192.55L192.705 238.502H178.678Z" fill="black"/>
<path opacity="0.05" d="M103.297 238.892V239.839L115.43 245.05L115.119 244.278L103.297 238.892Z" fill="black"/>
<path opacity="0.05" d="M173.286 152.514C171.618 155.652 169.545 158.559 167.122 161.158V146.862L148.137 139.431C133.908 142.28 131.664 130.832 127.673 127.165C127.502 127.01 127.277 126.928 127.046 126.937C126.815 126.947 126.598 127.048 126.44 127.217C126.362 127.301 126.301 127.399 126.261 127.507C126.221 127.614 126.202 127.729 126.207 127.843C126.211 127.958 126.238 128.07 126.286 128.175C126.334 128.279 126.402 128.373 126.486 128.45C129.795 131.552 132.611 144.026 147.333 141.066L166.317 148.497V162.774C169.15 159.73 171.5 156.27 173.286 152.514Z" fill="black"/>
<path d="M167.167 155.337C168.443 155.337 169.477 153.614 169.477 151.489C169.477 149.363 168.443 147.64 167.167 147.64C165.892 147.64 164.857 149.363 164.857 151.489C164.857 153.614 165.892 155.337 167.167 155.337Z" fill="#FDA57D"/>
<path d="M236.481 293.373H39.2373V302.458H236.481V293.373Z" fill="#E0E0E0"/>
<path d="M205.014 311.544H70.7061V320.629H205.014V311.544Z" fill="#E0E0E0"/>
<g opacity="0.5">
<path opacity="0.5" d="M494.962 152.495H211.826V430H494.962V152.495Z" fill="url(#paint4_linear)"/>
</g>
<path d="M493.541 154.63H213.247V427.865H493.541V154.63Z" fill="white"/>
<g opacity="0.5">
<path opacity="0.5" d="M465.084 177.324H241.705V350.774H465.084V177.324Z" fill="#657989"/>
</g>
<g opacity="0.5">
<path opacity="0.5" d="M373.08 285.598L373.729 285.111L374.656 284.423L417.972 252.241L403.082 192.672C403.082 192.672 403.082 192.601 403.082 192.478C403.205 190.66 403.899 176.597 396.301 179.135C388.879 181.607 391.63 191.997 392.162 193.763L392.246 194.022L401.719 244.116L371.613 261.677L367.435 261.21C372.197 254.677 374.725 246.782 374.644 238.697C374.644 220.007 361.92 204.853 346.218 204.853C330.517 204.853 317.793 220.007 317.793 238.697C317.793 252.695 324.93 264.714 335.11 269.848L324.333 275.241V275.299C321.245 274.65 309.527 274.845 314.276 317.858C315.442 328.279 312.964 338.782 307.263 347.581L304.291 351.715L378.485 352.169H378.712C378.712 352.169 368.207 335.328 373.08 285.598Z" fill="url(#paint5_linear)"/>
</g>
<path d="M325.644 275.597C325.644 275.597 310.331 268.984 314.795 314.432C316.007 326.548 313.063 338.717 306.445 348.937L305.504 350.385H319.739L330.458 339.028L325.644 275.597Z" fill="#3AD29F"/>
<path d="M402.108 194.379C402.108 194.379 402.108 194.314 402.108 194.191L391.403 195.45L391.481 195.709L400.765 244.81L368.921 263.39L370.219 287.279L416.655 252.773L402.108 194.379Z" fill="#3AD29F"/>
<path d="M346.387 272.671C361.774 272.671 374.248 257.817 374.248 239.495C374.248 221.173 361.774 206.32 346.387 206.32C331 206.32 318.526 221.173 318.526 239.495C318.526 257.817 331 272.671 346.387 272.671Z" fill="#FFFF00"/>
<path d="M360.317 250.774H340.417V279.971H360.317V250.774Z" fill="#FDA57D"/>
<path d="M346.387 275.357L341.08 267.394L325.157 275.357V288.531C325.157 288.531 319.376 298.72 324.087 310.454C322.789 327.703 319.272 350.313 319.272 350.313L378.257 350.748C378.257 350.748 367.643 333.725 372.95 283.301L371.652 262.066L359.714 260.768L346.387 275.357Z" fill="#3AD29F"/>
<path opacity="0.05" d="M371.594 262.06L372.924 263.384L374.247 284.313L372.703 285.462L371.594 262.06Z" fill="black"/>
<path opacity="0.05" d="M341.079 255.421C343.155 256.154 344.057 256.719 346.387 256.719C351.288 256.72 356.016 254.902 359.655 251.618V251.41H341.079V255.421Z" fill="black"/>
<path d="M347.048 256.083C358.038 256.083 366.948 247.172 366.948 236.179C366.948 225.186 358.038 216.275 347.048 216.275C336.058 216.275 327.148 225.186 327.148 236.179C327.148 247.172 336.058 256.083 347.048 256.083Z" fill="#FDA57D"/>
<path d="M366.955 239.495C368.055 239.495 368.947 238.011 368.947 236.179C368.947 234.348 368.055 232.863 366.955 232.863C365.855 232.863 364.963 234.348 364.963 236.179C364.963 238.011 365.855 239.495 366.955 239.495Z" fill="#FDA57D"/>
<path opacity="0.05" d="M329.673 229.949V230.883H363.834V231.818H329.206L329.673 229.949Z" fill="black"/>
<path d="M363.639 214.283H329.141V231.532H363.639V214.283Z" fill="#FFFF00"/>
<path d="M395.457 181.108C388.184 183.535 390.876 193.717 391.395 195.45L402.101 194.191C402.244 192.406 402.925 178.622 395.457 181.108Z" fill="#FDA57D"/>
<g opacity="0.05">
<path opacity="0.05" d="M320.446 350.313C320.446 350.313 323.937 327.703 325.261 310.454C320.583 298.772 326.357 288.531 326.357 288.531V275.357L341.209 267.927L340.852 267.394L324.936 275.357V288.531C324.936 288.531 319.162 298.753 323.84 310.454C322.542 327.703 319.025 350.313 319.025 350.313L378.01 350.748L320.446 350.313Z" fill="black"/>
<path opacity="0.05" d="M347.587 275.325L360.726 260.872L359.434 260.73L346.983 274.423L347.587 275.325Z" fill="black"/>
</g>
<path opacity="0.05" d="M336.083 270.613L346.276 294.093L364.962 262.027L359.798 261.365L346.99 274.17L341.3 267.771L336.083 270.613Z" fill="black"/>
<path d="M336.083 269.9L346.276 293.386L364.962 261.32L359.798 260.652L346.99 273.462L341.3 267.057L336.083 269.9Z" fill="white"/>
<path d="M452.542 369.302H255.298V378.388H452.542V369.302Z" fill="#E0E0E0"/>
<path d="M421.073 387.473H286.766V396.559H421.073V387.473Z" fill="#E0E0E0"/>
</g>
<defs>
<linearGradient id="paint0_linear" x1="561.421" y1="277.505" x2="561.421" y2="0" gradientUnits="userSpaceOnUse">
<stop stop-color="#808080" stop-opacity="0.25"/>
<stop offset="0.54" stop-color="#808080" stop-opacity="0.12"/>
<stop offset="1" stop-color="#808080" stop-opacity="0.1"/>
</linearGradient>
<linearGradient id="paint1_linear" x1="75769.3" y1="48116.5" x2="87741.6" y2="48116.5" gradientUnits="userSpaceOnUse">
<stop stop-color="#808080" stop-opacity="0.25"/>
<stop offset="0.54" stop-color="#808080" stop-opacity="0.12"/>
<stop offset="1" stop-color="#808080" stop-opacity="0.1"/>
</linearGradient>
<linearGradient id="paint2_linear" x1="61778.4" y1="150518" x2="61778.4" y2="31854.2" gradientUnits="userSpaceOnUse">
<stop stop-color="#808080" stop-opacity="0.25"/>
<stop offset="0.54" stop-color="#808080" stop-opacity="0.12"/>
<stop offset="1" stop-color="#808080" stop-opacity="0.1"/>
</linearGradient>
<linearGradient id="paint3_linear" x1="20858.2" y1="67393.7" x2="35713.9" y2="67393.7" gradientUnits="userSpaceOnUse">
<stop stop-color="#808080" stop-opacity="0.25"/>
<stop offset="0.54" stop-color="#808080" stop-opacity="0.12"/>
<stop offset="1" stop-color="#808080" stop-opacity="0.1"/>
</linearGradient>
<linearGradient id="paint4_linear" x1="153994" y1="184025" x2="153994" y2="65360.7" gradientUnits="userSpaceOnUse">
<stop stop-color="#808080" stop-opacity="0.25"/>
<stop offset="0.54" stop-color="#808080" stop-opacity="0.12"/>
<stop offset="1" stop-color="#808080" stop-opacity="0.1"/>
</linearGradient>
<linearGradient id="paint5_linear" x1="60158.6" y1="91671" x2="80074.4" y2="91671" gradientUnits="userSpaceOnUse">
<stop stop-color="#808080" stop-opacity="0.25"/>
<stop offset="0.54" stop-color="#808080" stop-opacity="0.12"/>
<stop offset="1" stop-color="#808080" stop-opacity="0.1"/>
</linearGradient>
<clipPath id="clip0">
<rect width="702" height="430" fill="white" transform="translate(0.989258)"/>
</clipPath>
</defs>
</svg>
