<svg width="216" height="201" viewBox="0 0 216 201" fill="none" xmlns="http://www.w3.org/2000/svg">
<g clip-path="url(#clip0)">
<path d="M102.045 2.16298L95.4802 5.7396L14.6021 49.8044L8.03738 53.381C4.85199 55.1211 2.48794 58.0519 1.46387 61.5304C0.4398 65.0088 0.839341 68.7509 2.57484 71.9355L62.8029 182.159C64.5456 185.34 67.4806 187.701 70.9641 188.723C74.4477 189.746 78.1951 189.347 81.3844 187.614L81.4014 187.605L175.375 136.405L175.392 136.396C178.577 134.656 180.941 131.725 181.965 128.247C182.99 124.768 182.59 121.026 180.854 117.842L120.626 7.61763C118.884 4.43687 115.949 2.07624 112.465 1.05365C108.982 0.0310556 105.234 0.430009 102.045 2.16298Z" fill="#657989"/>
<path d="M103.933 5.61852L96.1574 9.85478L17.7005 52.6004L9.92523 56.8366C7.65683 58.0758 5.97333 60.1628 5.24406 62.6399C4.51479 65.117 4.79931 67.7818 6.03521 70.0497L66.2633 180.274C67.5043 182.539 69.5944 184.22 72.0751 184.948C74.5558 185.676 77.2244 185.392 79.4956 184.158L79.5125 184.149L173.486 132.949L173.503 132.94C175.772 131.701 177.455 129.614 178.184 127.137C178.914 124.659 178.629 121.995 177.393 119.727L117.165 9.50294C115.924 7.23786 113.834 5.5568 111.353 4.82858C108.873 4.10036 106.204 4.38445 103.933 5.61852Z" fill="white"/>
<path d="M105.229 39.832L70.1806 58.9275C69.6496 59.2168 69.0253 59.2836 68.445 59.1133C67.8647 58.9429 67.3759 58.5494 67.0862 58.0192C66.7965 57.489 66.7296 56.8656 66.9002 56.2861C67.0708 55.7067 67.4649 55.2186 67.9959 54.9293L103.044 35.8339C103.575 35.5446 104.2 35.4778 104.78 35.6481C105.36 35.8185 105.849 36.212 106.139 36.7422C106.428 37.2724 106.495 37.8958 106.325 38.4753C106.154 39.0547 105.76 39.5428 105.229 39.832H105.229Z" fill="#657989"/>
<path d="M117.174 42.0796L73.8671 65.6744C73.3361 65.9637 72.7118 66.0305 72.1315 65.8601C71.5512 65.6898 71.0625 65.2962 70.7728 64.766C70.4831 64.2358 70.4161 63.6125 70.5867 63.033C70.7573 62.4535 71.1515 61.9655 71.6824 61.6762L114.989 38.0814C115.252 37.9382 115.541 37.8481 115.838 37.8162C116.136 37.7843 116.437 37.8113 116.725 37.8957C117.012 37.98 117.28 38.1201 117.513 38.3078C117.746 38.4955 117.94 38.7272 118.083 38.9898C118.227 39.2523 118.317 39.5405 118.349 39.8378C118.381 40.1352 118.354 40.4359 118.27 40.7228C118.185 41.0097 118.045 41.2772 117.857 41.51C117.669 41.7428 117.437 41.9364 117.174 42.0796H117.174Z" fill="#657989"/>
<path d="M55.7716 50.9788L23.4589 68.5837C23.2045 68.7224 23.0157 68.9562 22.934 69.2338C22.8523 69.5115 22.8843 69.8101 23.0231 70.0642L36.7826 95.2457C36.9215 95.4997 37.1557 95.6883 37.4337 95.7699C37.7117 95.8515 38.0109 95.8195 38.2653 95.681L70.578 78.0761C70.8324 77.9374 71.0212 77.7036 71.1029 77.4259C71.1846 77.1483 71.1526 76.8496 71.0138 76.5956L57.2543 51.4141C57.1154 51.1601 56.8812 50.9715 56.6032 50.8899C56.3252 50.8083 56.0261 50.8402 55.7716 50.9788Z" fill="#657989"/>
<path d="M122.619 71.7833L75.08 97.684C74.8171 97.8272 74.5285 97.9173 74.2307 97.9492C73.9329 97.9811 73.6317 97.9541 73.3444 97.8697C73.0571 97.7854 72.7892 97.6453 72.5561 97.4576C72.3229 97.2699 72.1291 97.0381 71.9856 96.7756C71.8422 96.5131 71.7519 96.2249 71.72 95.9276C71.6881 95.6302 71.7152 95.3295 71.7996 95.0426C71.8841 94.7557 72.0243 94.4882 72.2123 94.2554C72.4003 94.0226 72.6324 93.829 72.8953 93.6858L120.434 67.7852C120.965 67.4959 121.59 67.4291 122.17 67.5994C122.75 67.7698 123.239 68.1633 123.529 68.6935C123.818 69.2237 123.885 69.8471 123.715 70.4265C123.544 71.006 123.15 71.4941 122.619 71.7833H122.619Z" fill="#657989"/>
<path d="M134.565 74.0309L78.7675 104.431C78.2365 104.72 77.6122 104.787 77.0319 104.617C76.4516 104.446 75.9629 104.053 75.6732 103.522C75.3834 102.992 75.3165 102.369 75.4871 101.789C75.6577 101.21 76.0518 100.722 76.5828 100.433L132.38 70.0327C132.911 69.7434 133.535 69.6766 134.116 69.847C134.696 70.0173 135.185 70.4109 135.474 70.9411C135.764 71.4713 135.831 72.0946 135.66 72.6741C135.49 73.2536 135.096 73.7416 134.565 74.0309H134.565Z" fill="#657989"/>
<path d="M56.9753 118.896C62.3189 118.896 66.6508 114.57 66.6508 109.234C66.6508 103.898 62.3189 99.5728 56.9753 99.5728C51.6317 99.5728 47.2998 103.898 47.2998 109.234C47.2998 114.57 51.6317 118.896 56.9753 118.896Z" fill="#657989"/>
<path d="M201.741 47.5802H94.6512C91.0203 47.5843 87.5392 49.0264 84.9718 51.5901C82.4043 54.1538 80.9601 57.6298 80.9561 61.2554V186.819C80.9601 190.445 82.4043 193.921 84.9718 196.484C87.5392 199.048 91.0203 200.49 94.6512 200.494H201.741C205.372 200.49 208.853 199.048 211.421 196.484C213.988 193.921 215.432 190.445 215.437 186.819V61.2554C215.432 57.6298 213.988 54.1538 211.421 51.5901C208.853 49.0264 205.372 47.5843 201.741 47.5802Z" fill="#657989"/>
<path d="M201.741 51.517H94.6511C92.0654 51.5199 89.5865 52.5468 87.7581 54.3725C85.9298 56.1982 84.9013 58.6735 84.8984 61.2554V186.819C84.9013 189.401 85.9298 191.876 87.7581 193.702C89.5865 195.528 92.0654 196.554 94.6511 196.557H201.741C204.327 196.554 206.806 195.527 208.634 193.702C210.463 191.876 211.491 189.401 211.494 186.819V61.2554C211.491 58.6735 210.463 56.1982 208.634 54.3725C206.806 52.5468 204.327 51.5199 201.741 51.517Z" fill="white"/>
<path d="M186.469 82.1708H146.542C145.937 82.1708 145.357 81.9309 144.93 81.5038C144.502 81.0767 144.262 80.4975 144.262 79.8935C144.262 79.2895 144.502 78.7103 144.93 78.2832C145.357 77.8561 145.937 77.6162 146.542 77.6162H186.469C186.768 77.6159 187.065 77.6745 187.342 77.7888C187.619 77.9031 187.871 78.0708 188.083 78.2823C188.295 78.4938 188.463 78.745 188.578 79.0214C188.693 79.2979 188.752 79.5942 188.752 79.8935C188.752 80.1928 188.693 80.4891 188.578 80.7656C188.463 81.042 188.295 81.2932 188.083 81.5047C187.871 81.7162 187.619 81.8839 187.342 81.9982C187.065 82.1125 186.768 82.1711 186.469 82.1708Z" fill="#657989"/>
<path d="M195.876 89.8566H146.542C145.937 89.8566 145.357 89.6167 144.93 89.1896C144.502 88.7625 144.262 88.1833 144.262 87.5793C144.262 86.9753 144.502 86.3961 144.93 85.969C145.357 85.5419 145.937 85.302 146.542 85.302H195.876C196.481 85.302 197.061 85.5419 197.489 85.969C197.916 86.3961 198.157 86.9753 198.157 87.5793C198.157 88.1833 197.916 88.7625 197.489 89.1896C197.061 89.6167 196.481 89.8566 195.876 89.8566Z" fill="#657989"/>
<path d="M137.706 68.3019H100.896C100.607 68.302 100.329 68.4169 100.124 68.6216C99.9189 68.8262 99.8038 69.1037 99.8037 69.3931V98.079C99.8038 98.3684 99.9189 98.6459 100.124 98.8505C100.329 99.0551 100.607 99.1701 100.896 99.1702H137.706C137.996 99.1701 138.274 99.0551 138.479 98.8505C138.684 98.6459 138.799 98.3684 138.799 98.079V69.3931C138.799 69.1037 138.684 68.8262 138.479 68.6216C138.274 68.4169 137.996 68.302 137.706 68.3019Z" fill="#657989"/>
<path d="M186.408 118.536H132.253C131.954 118.536 131.657 118.477 131.381 118.363C131.104 118.248 130.852 118.08 130.641 117.869C130.429 117.657 130.261 117.406 130.146 117.13C130.032 116.854 129.973 116.558 129.973 116.259C129.973 115.96 130.032 115.663 130.146 115.387C130.261 115.111 130.429 114.86 130.641 114.648C130.852 114.437 131.104 114.269 131.381 114.155C131.657 114.04 131.954 113.981 132.253 113.981H186.408C187.013 113.982 187.592 114.222 188.019 114.649C188.446 115.076 188.686 115.655 188.686 116.259C188.686 116.862 188.446 117.441 188.019 117.868C187.592 118.295 187.013 118.535 186.408 118.536Z" fill="#657989"/>
<path d="M195.815 126.222H132.253C131.953 126.222 131.656 126.163 131.379 126.049C131.102 125.935 130.851 125.767 130.639 125.556C130.427 125.344 130.258 125.093 130.144 124.817C130.029 124.54 129.97 124.244 129.97 123.945C129.97 123.645 130.029 123.349 130.144 123.072C130.258 122.796 130.427 122.545 130.639 122.333C130.851 122.122 131.102 121.954 131.379 121.84C131.656 121.726 131.953 121.667 132.253 121.667H195.815C196.115 121.667 196.412 121.726 196.689 121.84C196.966 121.954 197.217 122.122 197.429 122.333C197.642 122.545 197.81 122.796 197.925 123.072C198.039 123.349 198.098 123.645 198.098 123.945C198.098 124.244 198.039 124.54 197.925 124.817C197.81 125.093 197.642 125.344 197.429 125.556C197.217 125.767 196.966 125.935 196.689 126.049C196.412 126.163 196.115 126.222 195.815 126.222Z" fill="#657989"/>
<path d="M186.408 146.16H132.253C131.648 146.16 131.068 145.92 130.641 145.493C130.213 145.066 129.973 144.487 129.973 143.883C129.973 143.279 130.213 142.7 130.641 142.272C131.068 141.845 131.648 141.605 132.253 141.605H186.408C187.013 141.605 187.593 141.845 188.021 142.272C188.448 142.7 188.689 143.279 188.689 143.883C188.689 144.487 188.448 145.066 188.021 145.493C187.593 145.92 187.013 146.16 186.408 146.16Z" fill="#657989"/>
<path d="M195.816 153.846H132.253C131.648 153.846 131.068 153.606 130.641 153.179C130.213 152.752 129.973 152.173 129.973 151.569C129.973 150.965 130.213 150.385 130.641 149.958C131.068 149.531 131.648 149.291 132.253 149.291H195.816C196.42 149.291 197.001 149.531 197.428 149.958C197.856 150.385 198.096 150.965 198.096 151.569C198.096 152.173 197.856 152.752 197.428 153.179C197.001 153.606 196.42 153.846 195.816 153.846Z" fill="#657989"/>
<path d="M110.82 129.678C116.164 129.678 120.496 125.352 120.496 120.016C120.496 114.68 116.164 110.355 110.82 110.355C105.476 110.355 101.145 114.68 101.145 120.016C101.145 125.352 105.476 129.678 110.82 129.678Z" fill="#657989"/>
<path d="M110.82 157.525C116.164 157.525 120.496 153.2 120.496 147.864C120.496 142.528 116.164 138.202 110.82 138.202C105.476 138.202 101.145 142.528 101.145 147.864C101.145 153.2 105.476 157.525 110.82 157.525Z" fill="#657989"/>
<path d="M186.408 174.008H132.253C131.648 174.008 131.068 173.768 130.641 173.341C130.213 172.914 129.973 172.335 129.973 171.731C129.973 171.127 130.213 170.547 130.641 170.12C131.068 169.693 131.648 169.453 132.253 169.453H186.408C187.013 169.453 187.593 169.693 188.021 170.12C188.448 170.547 188.689 171.127 188.689 171.731C188.689 172.335 188.448 172.914 188.021 173.341C187.593 173.768 187.013 174.008 186.408 174.008Z" fill="#657989"/>
<path d="M195.816 181.694H132.253C131.648 181.694 131.068 181.454 130.641 181.027C130.213 180.6 129.973 180.02 129.973 179.416C129.973 178.812 130.213 178.233 130.641 177.806C131.068 177.379 131.648 177.139 132.253 177.139H195.816C196.42 177.139 197.001 177.379 197.428 177.806C197.856 178.233 198.096 178.812 198.096 179.416C198.096 180.02 197.856 180.6 197.428 181.027C197.001 181.454 196.42 181.694 195.816 181.694Z" fill="#657989"/>
<path d="M110.82 185.373C116.164 185.373 120.496 181.047 120.496 175.711C120.496 170.376 116.164 166.05 110.82 166.05C105.476 166.05 101.145 170.376 101.145 175.711C101.145 181.047 105.476 185.373 110.82 185.373Z" fill="#657989"/>
</g>
<defs>
<clipPath id="clip0">
<rect width="214.533" height="200" fill="white" transform="translate(0.90332 0.494141)"/>
</clipPath>
</defs>
</svg>
