<svg width="75" height="75" viewBox="0 0 75 75" fill="none" xmlns="http://www.w3.org/2000/svg">
<path d="M37.293 74.296C57.6272 74.296 74.1114 57.8118 74.1114 37.4776C74.1114 17.1433 57.6272 0.65918 37.293 0.65918C16.9587 0.65918 0.474609 17.1433 0.474609 37.4776C0.474609 57.8118 16.9587 74.296 37.293 74.296Z" fill="#657989"/>
<path d="M53.0979 46.9732C51.8161 45.6914 48.7332 43.7576 47.2046 43.0357C45.4403 42.1885 44.7921 42.2033 43.5434 43.1057C42.5047 43.8423 41.8307 44.5532 40.6373 44.2917C39.4439 44.0302 37.0792 42.2475 34.7919 39.9675C32.5045 37.6875 30.7292 35.3376 30.475 34.1258C30.2209 32.914 30.9207 32.2546 31.6647 31.2159C32.5635 29.9673 32.5893 29.319 31.7347 27.5547C30.9981 26.0262 29.0864 22.9506 27.7936 21.6614C26.5007 20.3723 26.2208 20.6559 25.5136 20.9248C24.7858 21.2299 24.0869 21.5997 23.4252 22.0298C22.1434 22.888 21.4251 23.6025 20.9205 24.6781C20.4159 25.7536 19.845 27.75 22.7806 32.9766C24.9462 36.9749 27.689 40.6324 30.9207 43.8313C34.1305 47.0704 37.8005 49.8182 41.8123 51.9861C47.0352 54.9328 49.0352 54.3471 50.1108 53.8462C51.1863 53.3453 51.9009 52.6344 52.7554 51.3416C53.1863 50.6804 53.5561 49.9813 53.8604 49.2531C54.1035 48.5459 54.3908 48.2586 53.0979 46.9732Z" fill="white"/>
<path opacity="0.1" d="M37.2929 0.662846C30.0065 0.659204 22.8826 2.8168 16.8226 6.86268C10.7626 10.9086 6.03879 16.6609 3.2487 23.392C0.458606 30.1232 -0.272363 37.5306 1.14826 44.6772C2.56889 51.8239 6.07729 58.3886 11.2296 63.5409C16.3819 68.6932 22.9466 72.2016 30.0933 73.6222C37.2399 75.0429 44.6473 74.3119 51.3785 71.5218C58.1096 68.7317 63.8619 64.0079 67.9078 57.9479C71.9537 51.8879 74.1113 44.764 74.1077 37.4776C74.1028 27.7152 70.2225 18.3541 63.3195 11.451C56.4164 4.54798 47.0553 0.667726 37.2929 0.662846ZM37.2929 69.4008C30.9791 69.4008 24.8071 67.5286 19.5573 64.0208C14.3076 60.513 10.2159 55.5273 7.79969 49.6941C5.3835 43.8608 4.75132 37.4421 5.98308 31.2496C7.21485 25.0571 10.2552 19.3689 14.7198 14.9044C19.1843 10.4398 24.8725 7.39945 31.065 6.16768C37.2575 4.93592 43.6762 5.56811 49.5094 7.98431C55.3427 10.4005 60.3284 14.4922 63.8362 19.7419C67.3439 24.9917 69.2162 31.1637 69.2162 37.4776C69.2162 41.6698 68.3905 45.8209 66.7862 49.6941C65.1819 53.5672 62.8305 57.0864 59.8661 60.0507C56.9018 63.0151 53.3826 65.3665 49.5094 66.9708C45.6363 68.5751 41.4852 69.4008 37.2929 69.4008Z" fill="#FDB797"/>
</svg>
