<svg width="16" height="17" viewBox="0 0 16 17" fill="none" xmlns="http://www.w3.org/2000/svg">
<circle cx="8" cy="8.4082" r="7.5" stroke="black"/>
<path d="M8.10304 12.2004C7.37504 12.2004 6.72171 12.0417 6.14304 11.7244C5.57371 11.407 5.12571 10.9637 4.79904 10.3944C4.47237 9.8157 4.30904 9.16704 4.30904 8.44837C4.30904 7.7297 4.47237 7.0857 4.79904 6.51637C5.12571 5.94704 5.57371 5.5037 6.14304 5.18637C6.72171 4.86904 7.37504 4.71037 8.10304 4.71037C8.73771 4.71037 9.30237 4.83637 9.79704 5.08837C10.301 5.33104 10.6977 5.69037 10.987 6.16637L10.245 6.67037C10.0024 6.30637 9.69437 6.0357 9.32104 5.85837C8.94771 5.6717 8.54171 5.57837 8.10304 5.57837C7.57104 5.57837 7.09037 5.6997 6.66104 5.94237C6.24104 6.1757 5.90971 6.5117 5.66704 6.95037C5.43371 7.38904 5.31704 7.88837 5.31704 8.44837C5.31704 9.0177 5.43371 9.5217 5.66704 9.96037C5.90971 10.3897 6.24104 10.7257 6.66104 10.9684C7.09037 11.2017 7.57104 11.3184 8.10304 11.3184C8.54171 11.3184 8.94771 11.2297 9.32104 11.0524C9.69437 10.875 10.0024 10.6044 10.245 10.2404L10.987 10.7444C10.6977 11.2204 10.301 11.5844 9.79704 11.8364C9.29304 12.079 8.72837 12.2004 8.10304 12.2004Z" fill="black"/>
</svg>
