<svg width="74" height="75" viewBox="0 0 74 75" fill="none" xmlns="http://www.w3.org/2000/svg">
<path d="M36.9501 74.2946C57.2762 74.2946 73.7538 57.817 73.7538 37.4909C73.7538 17.1648 57.2762 0.687256 36.9501 0.687256C16.624 0.687256 0.146484 17.1648 0.146484 37.4909C0.146484 57.817 16.624 74.2946 36.9501 74.2946Z" fill="#657989"/>
<path d="M36.9485 19.8804L22.2764 53.7312L23.646 55.1008L36.9522 49.232L50.2583 55.1008L51.628 53.7312L36.9485 19.8804Z" fill="white"/>
<path opacity="0.1" d="M36.9481 0.675786C29.6654 0.672144 22.5451 2.82841 16.4879 6.87185C10.4307 10.9153 5.70878 16.6643 2.91926 23.3916C0.129737 30.119 -0.602007 37.5225 0.816559 44.6658C2.23513 51.8091 5.74028 58.3712 10.8887 63.5222C16.0371 68.6732 22.5975 72.1816 29.74 73.6037C36.8826 75.0259 44.2865 74.2978 51.0153 71.5117C57.744 68.7255 63.4953 64.0064 67.5418 57.9513C71.5883 51.8961 73.7481 44.7769 73.7481 37.4942C73.7481 27.7325 69.8716 18.3704 62.9708 11.4662C56.07 4.56189 46.7098 0.680667 36.9481 0.675786ZM36.9481 69.3863C30.6361 69.3862 24.4658 67.5143 19.2177 64.0071C13.9697 60.4999 9.87961 55.5151 7.46492 49.6831C5.05024 43.8512 4.41939 37.4341 5.65215 31.2436C6.88492 25.053 9.92593 19.3671 14.3905 14.9051C18.8551 10.4431 24.5428 7.40537 30.734 6.17617C36.9252 4.94698 43.342 5.58154 49.1725 7.9996C55.0031 10.4176 59.9855 14.5106 63.4897 19.7606C66.9939 25.0107 68.8623 31.1821 68.8586 37.4942C68.8577 45.9567 65.4952 54.0723 59.511 60.0559C53.5267 66.0395 45.4107 69.401 36.9481 69.401V69.3863Z" fill="#747F8A"/>
</svg>
