<svg width="77" height="77" viewBox="0 0 77 77" fill="none" xmlns="http://www.w3.org/2000/svg">
<path d="M38.411 76.2892C59.2942 76.2892 76.2233 59.3601 76.2233 38.4769C76.2233 17.5937 59.2942 0.664551 38.411 0.664551C17.5278 0.664551 0.598633 17.5937 0.598633 38.4769C0.598633 59.3601 17.5278 76.2892 38.411 76.2892Z" fill="#657989"/>
<path d="M59.9156 27.0529L48.5938 38.5714C48.5739 38.5905 48.5581 38.6134 48.5473 38.6387C48.5364 38.6641 48.5308 38.6914 48.5308 38.7189C48.5308 38.7465 48.5364 38.7738 48.5473 38.7991C48.5581 38.8245 48.5739 38.8474 48.5938 38.8664L56.5376 47.3133C56.7276 47.5048 56.8569 47.7481 56.9091 48.0128C56.9613 48.2774 56.9342 48.5516 56.8312 48.801C56.7282 49.0503 56.5538 49.2636 56.3299 49.4142C56.1061 49.5647 55.8428 49.6458 55.573 49.6473C55.21 49.6465 54.8619 49.5024 54.6046 49.2463L46.7024 40.8297C46.6621 40.7899 46.6077 40.7677 46.5511 40.7677C46.4945 40.7677 46.4402 40.7899 46.3998 40.8297L44.4744 42.774C43.6861 43.5802 42.7446 44.2207 41.7052 44.6579C40.6658 45.0951 39.5496 45.3201 38.422 45.3198C37.2731 45.3145 36.1368 45.0802 35.0794 44.6308C34.022 44.1814 33.0648 43.5257 32.2637 42.7021L30.4139 40.8108C30.3736 40.771 30.3192 40.7488 30.2626 40.7488C30.206 40.7488 30.1517 40.771 30.1113 40.8108L22.2281 49.2085C22.1012 49.3355 21.9506 49.4363 21.7847 49.5051C21.6189 49.5739 21.4411 49.6093 21.2616 49.6093C21.082 49.6093 20.9043 49.5739 20.7384 49.5051C20.5726 49.4363 20.4219 49.3355 20.2951 49.2085C20.1676 49.0819 20.0663 48.9313 19.9973 48.7654C19.9282 48.5996 19.8927 48.4217 19.8927 48.242C19.8927 48.0623 19.9282 47.8844 19.9973 47.7185C20.0663 47.5526 20.1676 47.4021 20.2951 47.2755L28.2086 38.8475C28.2438 38.8064 28.2631 38.7541 28.2631 38.7C28.2631 38.6459 28.2438 38.5936 28.2086 38.5525L16.8868 27.034C16.8577 27.0047 16.8206 26.9848 16.7801 26.9767C16.7397 26.9686 16.6977 26.9727 16.6596 26.9885C16.6215 27.0043 16.5889 27.0311 16.566 27.0655C16.5432 27.0999 16.5311 27.1403 16.5313 27.1815V50.2298C16.5342 51.1208 16.8895 51.9744 17.5195 52.6044C18.1495 53.2344 19.0032 53.5897 19.8941 53.5927H56.9159C57.8068 53.5897 58.6605 53.2344 59.2905 52.6044C59.9205 51.9744 60.2757 51.1208 60.2787 50.2298V27.2005C60.2806 27.1576 60.2692 27.1151 60.246 27.079C60.2228 27.0429 60.189 27.0148 60.1492 26.9986C60.1094 26.9825 60.0656 26.979 60.0238 26.9887C59.9819 26.9985 59.9442 27.0209 59.9156 27.0529Z" fill="white"/>
<path d="M38.4108 42.5849C39.1782 42.5924 39.9394 42.4456 40.649 42.1532C41.3586 41.8608 42.0022 41.4287 42.5415 40.8826L59.0305 24.0986C58.4452 23.6137 57.7101 23.3464 56.95 23.342H19.9018C19.1414 23.3445 18.4057 23.6121 17.8213 24.0986L34.3141 40.8826C34.8486 41.4256 35.4865 41.856 36.1902 42.1483C36.8938 42.4407 37.6488 42.5891 38.4108 42.5849Z" fill="white"/>
<path opacity="0.1" d="M37.9343 0.66895C30.4511 0.665209 23.1349 2.88105 16.9113 7.03615C10.6877 11.1912 5.83639 17.0989 2.97097 24.0117C0.105555 30.9246 -0.645148 38.532 0.81383 45.8716C2.27281 53.2111 5.87591 59.9531 11.1673 65.2445C16.4587 70.5359 23.2007 74.139 30.5402 75.598C37.8798 77.0569 45.4872 76.3062 52.4001 73.4408C59.3129 70.5754 65.2205 65.724 69.3756 59.5004C73.5307 53.2768 75.7466 45.9607 75.7428 38.4775C75.7378 28.4516 71.7528 18.8377 64.6634 11.7484C57.574 4.65896 47.9602 0.673962 37.9343 0.66895ZM37.9343 71.2626C31.45 71.2626 25.1113 69.3398 19.7199 65.7373C14.3284 62.1348 10.1263 57.0145 7.64483 51.0238C5.16341 45.0331 4.51416 38.4411 5.77918 32.0815C7.0442 25.7218 10.1667 19.88 14.7517 15.295C19.3368 10.7099 25.1785 7.58741 31.5382 6.3224C37.8979 5.05738 44.4899 5.70662 50.4806 8.18805C56.4713 10.6695 61.5916 14.8716 65.1941 20.2631C68.7965 25.6546 70.7193 31.9932 70.7193 38.4775C70.7193 47.1727 67.2652 55.5117 61.1168 61.66C54.9684 67.8084 46.6294 71.2626 37.9343 71.2626Z" fill="#747F8A"/>
</svg>
