<svg width="53" height="55" viewBox="0 0 53 55" fill="none" xmlns="http://www.w3.org/2000/svg">
<g clip-path="url(#clip0)">
<path d="M49.3058 54.257C50.8906 54.257 52.1758 52.9227 52.1758 51.2767V3.23717C52.1758 1.59102 50.8906 0.256836 49.3058 0.256836H3.04573C1.46034 0.256836 0.175781 1.59102 0.175781 3.23717V51.2767C0.175781 52.9227 1.46034 54.257 3.04573 54.257H49.3058Z" fill="#395185"/>
<path d="M36.0546 55.1007V34.1889H42.814L43.8259 26.0394H36.0546V20.836C36.0546 18.4764 36.6857 16.8684 39.944 16.8684L44.0997 16.8665V9.57761C43.3807 9.47825 40.9139 9.25635 38.0442 9.25635C32.0524 9.25635 27.9505 13.0543 27.9505 20.0291V26.0394H21.1738V34.1889H27.9505V55.1007H36.0546Z" fill="white"/>
</g>
<defs>
<clipPath id="clip0">
<rect width="52" height="54" fill="white" transform="translate(0.175781 0.256836)"/>
</clipPath>
</defs>
</svg>
