<svg width="55" height="55" viewBox="0 0 55 55" fill="none" xmlns="http://www.w3.org/2000/svg">
<g clip-path="url(#clip0)">
<path d="M46.1863 45.9756H38.1852V33.4453C38.1852 30.4574 38.1319 26.611 34.0239 26.611C29.8566 26.611 29.2189 29.8666 29.2189 33.2278V45.9748H21.2181V20.2075H28.8989V23.7289H29.0065C29.7752 22.4146 30.886 21.3333 32.2205 20.6003C33.5551 19.8673 35.0635 19.51 36.5851 19.5665C44.6946 19.5665 46.1897 24.9007 46.1897 31.8401L46.1863 45.9756ZM12.1899 16.6855C9.62557 16.6859 7.54636 14.6073 7.54594 12.043C7.54552 9.47861 9.62388 7.3994 12.1883 7.39898C14.7526 7.39835 16.8318 9.47692 16.8323 12.0413C16.8325 13.2728 16.3435 14.4539 15.4729 15.3248C14.6023 16.1958 13.4214 16.6852 12.1899 16.6855ZM16.1906 45.9759H8.18107V20.2075H16.1904V45.9756L16.1906 45.9759ZM50.1752 -0.0317144H4.1606C1.98584 -0.0561831 0.202359 1.68595 0.175781 3.86071V50.0672C0.201516 52.243 1.98478 53.9868 4.16039 53.9641H50.1752C52.3554 53.9911 54.1456 52.2472 54.1758 50.0672V3.85713C54.1448 1.67814 52.3543 -0.0637769 50.1752 -0.0353003" fill="#0A66C2"/>
</g>
<defs>
<clipPath id="clip0">
<rect width="54" height="54" fill="white" transform="translate(0.175781 0.256836)"/>
</clipPath>
</defs>
</svg>
